<?xml version="1.0" encoding="UTF-8"?>
<svg version="1.1" xmlns="http://www.w3.org/2000/svg" width="369" height="554">
<path d="M0 0 C121.77 0 243.54 0 369 0 C369 182.82 369 365.64 369 554 C247.23 554 125.46 554 0 554 C0 371.18 0 188.36 0 0 Z " fill="#FCFCFC" transform="translate(0,0)"/>
<path d="M0 0 C121.77 0 243.54 0 369 0 C369 182.82 369 365.64 369 554 C247.23 554 125.46 554 0 554 C0 371.18 0 188.36 0 0 Z M232 76 C229.79589844 76.30297852 229.79589844 76.30297852 227.609375 76.37890625 C226.81789062 76.41306641 226.02640625 76.44722656 225.2109375 76.48242188 C224.39882812 76.50884766 223.58671875 76.53527344 222.75 76.5625 C217.45729453 76.27428136 217.45729453 76.27428136 213 78 C211.53668379 78.14456186 210.06709324 78.2269601 208.59765625 78.28125 C207.70755859 78.31863281 206.81746094 78.35601562 205.90039062 78.39453125 C204.49563477 78.44673828 204.49563477 78.44673828 203.0625 78.5 C201.21989241 78.56876352 199.37742711 78.64148918 197.53515625 78.71875 C196.714104 78.74904297 195.89305176 78.77933594 195.04711914 78.81054688 C192.93537834 78.8811079 192.93537834 78.8811079 191 80 C191 80.66 191 81.32 191 82 C190.13955078 81.94779297 190.13955078 81.94779297 189.26171875 81.89453125 C181.13626889 81.63560189 173.45724261 82.92793841 165.48046875 84.2734375 C161.39796752 84.9571059 157.33558419 85.43115596 153.203125 85.69140625 C150.79002619 85.97487791 150.79002619 85.97487791 147.7109375 86.96484375 C142.69629145 88.36366607 137.68577306 88.85110894 132.5234375 89.4375 C129.3378711 89.94606049 126.94328297 90.75177604 124 92 C122.25856752 92.39414078 120.50780438 92.7493582 118.75 93.0625 C115.57842443 93.42767667 115.57842443 93.42767667 113 95 C111.3333411 95.02144598 109.6659836 94.98956199 108 94.9375 C102.04209125 94.88089279 96.32470739 95.46371682 90.43066406 96.21850586 C85.87196407 96.79673454 81.33933434 97.21891605 76.75 97.5 C64.47106527 98.28263554 64.47106527 98.28263554 52.6875 101.5625 C48.63413542 103.14262517 45.30761087 103.61539189 41 104 C41 104.66 41 105.32 41 106 C40.38125 106.061875 39.7625 106.12375 39.125 106.1875 C36.74879337 106.83093315 36.74879337 106.83093315 35.6875 109.4375 C34.70567636 111.96444412 34.70567636 111.96444412 36 114 C35.34 114 34.68 114 34 114 C33.67 112.68 33.34 111.36 33 110 C32.34 110 31.68 110 31 110 C25.73750793 117.98443016 24.15590478 123.97593655 24.5625 133.46484375 C24.58844238 134.61940567 24.61438477 135.77396759 24.64111328 136.96351624 C24.70113148 139.39006141 24.77589406 141.81628283 24.86474609 144.24194336 C24.99948669 147.92347486 25.09174711 151.60410429 25.17578125 155.28710938 C25.23971729 157.65892204 25.30604469 160.0306717 25.375 162.40234375 C25.40537354 163.48708481 25.43574707 164.57182587 25.46704102 165.68943787 C25.7348004 172.81890952 26.14624447 180.08143353 28 187 C28.66 187.33 29.32 187.66 30 188 C30.39477539 190.1171875 30.39477539 190.1171875 30.59765625 192.875 C30.67693359 193.85984375 30.75621094 194.8446875 30.83789062 195.859375 C30.91201172 196.89578125 30.98613281 197.9321875 31.0625 199 C31.21615522 201.04196364 31.37350514 203.08365379 31.53515625 205.125 C31.600979 206.03507813 31.66680176 206.94515625 31.73461914 207.8828125 C31.7778495 209.98240674 31.7778495 209.98240674 33 211 C33.10943369 212.36405981 33.15588238 213.73326468 33.17578125 215.1015625 C33.43042453 225.67023803 34.2809135 235.76098626 36.26782227 246.14331055 C38.17306601 256.35442637 39.45565447 266.63486715 40.75 276.9375 C40.86259155 277.83153534 40.97518311 278.72557068 41.09118652 279.646698 C41.73444179 284.7636136 42.37032889 289.88139579 43 295 C43.66 295 44.32 295 45 295 C45 295.66 45 296.32 45 297 C45.66 297 46.32 297 47 297 C46.98839844 297.83144531 46.97679688 298.66289062 46.96484375 299.51953125 C46.95582031 300.60621094 46.94679688 301.69289063 46.9375 302.8125 C46.92589844 303.89144531 46.91429688 304.97039062 46.90234375 306.08203125 C46.86375234 309.06512169 46.86375234 309.06512169 48 312 C48.19068221 313.61597469 48.34086819 315.23691885 48.46484375 316.859375 C48.54283203 317.81070313 48.62082031 318.76203125 48.70117188 319.7421875 C48.85747999 321.73156345 49.01116881 323.7211471 49.16210938 325.7109375 C49.60680331 331.07618791 50.46042354 335.82255337 52 341 C52.25043574 343.45272114 52.43911828 345.91261579 52.5625 348.375 C52.40852358 352.50694621 52.40852358 352.50694621 54 356 C54.24720647 359.1999504 54.3841903 362.39911874 54.5234375 365.60546875 C54.78915328 368.99635539 54.78915328 368.99635539 56.46875 371.609375 C58.85647877 376.89648871 58.80166211 382.32166742 59.125 388.0625 C59.27083364 390.38688358 59.41917667 392.7111114 59.5703125 395.03515625 C59.62977051 396.0600415 59.68922852 397.08492676 59.75048828 398.14086914 C59.98518273 400.83021037 60.45522663 403.35971406 61 406 C61.2175924 409.4020399 61.39026997 412.79880883 61.51757812 416.20507812 C61.70243603 419.91967564 61.96649103 422.83036052 64 426 C64.66 426 65.32 426 66 426 C65.9175 427.2375 65.835 428.475 65.75 429.75 C65.69144162 433.26340018 65.69144162 433.26340018 67.875 436 C68.57625 436.66 69.2775 437.32 70 438 C70.5703125 439.8046875 70.5703125 439.8046875 71 441.875 C71.91560188 446.00674968 73.09535508 448.79744278 76 452 C78.92674253 453.3395281 81.8766591 454.23918619 85 455 C85 455.66 85 456.32 85 457 C87.93782469 456.85924795 90.87515171 456.7126162 93.8125 456.5625 C94.64587891 456.52318359 95.47925781 456.48386719 96.33789062 456.44335938 C97.14033203 456.40146484 97.94277344 456.35957031 98.76953125 456.31640625 C99.50792236 456.27974854 100.24631348 456.24309082 101.00708008 456.20532227 C103.207495 456.05157859 103.207495 456.05157859 106 455 C106 455.66 106 456.32 106 457 C113.04712651 460.52356325 123.64701389 457.39330442 131 456 C135.38748149 455.16917404 139.58727972 454.84217178 144.05078125 454.75390625 C145.40300108 454.7209601 146.75521446 454.68774858 148.10742188 454.65429688 C150.20690435 454.60708726 152.30636217 454.56261524 154.40600586 454.52319336 C164.86488885 454.31950705 164.86488885 454.31950705 175.13305664 452.46557617 C177.91975229 451.77063324 180.70329488 451.57218656 183.5625 451.375 C185.11130859 451.26285156 185.11130859 451.26285156 186.69140625 451.1484375 C187.45324219 451.09945313 188.21507812 451.05046875 189 451 C189 450.34 189 449.68 189 449 C190.19496094 448.96261719 191.38992187 448.92523438 192.62109375 448.88671875 C194.22659065 448.82099665 195.83205807 448.75455155 197.4375 448.6875 C198.22060547 448.66494141 199.00371094 448.64238281 199.81054688 448.61914062 C203.93904576 448.43225384 207.36516421 447.9778309 211.22265625 446.46484375 C217.3450439 444.23553613 223.57006275 444.71716803 230 444.875 C232.43743163 444.91811794 234.87493519 444.95740337 237.3125 444.9921875 C238.38113281 445.01651855 239.44976562 445.04084961 240.55078125 445.06591797 C242.94686922 445.28240635 242.94686922 445.28240635 244 444 C246.05769762 443.67618492 248.12154877 443.39112253 250.1875 443.125 C255.07306401 442.41185667 258.66860542 441.41752256 263 439 C267.70065598 437.4394971 272.02395255 436.75119763 277 437 C277 437.66 277 438.32 277 439 C282.01535052 438.67039784 282.01535052 438.67039784 286 436 C288.80314385 435.87990711 291.5143027 435.86035672 294.3125 435.9375 C301.23163687 436.20997082 301.23163687 436.20997082 308 435 C308.4125 434.360625 308.825 433.72125 309.25 433.0625 C311.67930353 430.19939227 313.96979249 430.15908284 317.5703125 429.50390625 C321.2272644 428.74547089 324.53704658 427.38518137 328 426 C328 425.34 328 424.68 328 424 C330.97 424 333.94 424 337 424 C337 422.68 337 421.36 337 420 C340.3 419.67 343.6 419.34 347 419 C347.66 417.35 348.32 415.7 349 414 C349.33 414 349.66 414 350 414 C352.25978298 396.97493392 352.25978298 396.97493392 350.01147461 380.68994141 C348.90125659 377.73739925 348.6868489 375.40679062 348.5859375 372.26171875 C348.54726563 371.19501953 348.50859375 370.12832031 348.46875 369.02929688 C348.42234375 367.37510742 348.42234375 367.37510742 348.375 365.6875 C348.33632813 364.56537109 348.29765625 363.44324219 348.2578125 362.28710938 C348.16377989 359.52490148 348.07812659 356.762696 348 354 C347.01 353.67 346.02 353.34 345 353 C345.01160156 352.19820313 345.02320313 351.39640625 345.03515625 350.5703125 C345.09187198 343.424131 344.93892271 336.32310324 344.5625 329.1875 C344.50364624 327.99568115 344.50364624 327.99568115 344.44360352 326.77978516 C344.56037947 323.0823364 344.56037947 323.0823364 343 320 C342.81007403 318.64635931 342.67707369 317.28459912 342.5703125 315.921875 C342.46009766 314.67470703 342.46009766 314.67470703 342.34765625 313.40234375 C342.20057491 311.6502696 342.05982787 309.89765083 341.92578125 308.14453125 C341.53145427 303.10043982 341.53145427 303.10043982 339.46484375 298.578125 C337.06035739 294.34622901 337.50324851 289.78398696 337.4375 285 C337.40289302 283.04150106 337.36019299 281.08312494 337.30859375 279.125 C337.29010376 277.82949219 337.29010376 277.82949219 337.27124023 276.5078125 C336.96896978 273.71310311 336.06348455 271.59018722 335 269 C334.71289062 266.89111328 334.71289062 266.89111328 334.65625 264.8203125 C334.62660156 264.05589844 334.59695313 263.29148437 334.56640625 262.50390625 C334.54449219 261.71886719 334.52257812 260.93382812 334.5 260.125 C334.49765315 250.2855559 334.49765315 250.2855559 330 242 C329.76381187 239.7367796 329.63853843 237.46174043 329.5625 235.1875 C329.28048961 228.74091866 328.52367248 222.49303258 327.5 216.125 C325.99081333 206.54791917 325.52622241 197.03987419 325.29101562 187.35400391 C325.25137695 185.76531494 325.25137695 185.76531494 325.2109375 184.14453125 C325.18459229 182.72684448 325.18459229 182.72684448 325.15771484 181.28051758 C325.14467369 178.96898152 325.14467369 178.96898152 324 177 C323.34 177 322.68 177 322 177 C322.03480469 175.96939453 322.03480469 175.96939453 322.0703125 174.91796875 C322.08835937 174.01691406 322.10640625 173.11585938 322.125 172.1875 C322.14820313 171.29417969 322.17140625 170.40085937 322.1953125 169.48046875 C322.18285827 166.74597286 322.18285827 166.74597286 320 164 C319.65283203 161.40649414 319.65283203 161.40649414 319.5078125 158.28515625 C319.444729 157.13345947 319.38164551 155.9817627 319.31665039 154.79516602 C319.25340576 153.56338623 319.19016113 152.33160645 319.125 151.0625 C318.43946932 139.81706343 317.07090581 129.08439683 314.49804688 118.12304688 C314.0140908 116.06006549 313.55765071 113.99286822 313.109375 111.921875 C312.36536241 106.58115654 312.36536241 106.58115654 310 102 C309.62819644 100.02769832 309.30199332 98.04669048 309 96.0625 C308.43741399 91.89319459 308.43741399 91.89319459 307 88 C306.0925 87.566875 305.185 87.13375 304.25 86.6875 C299.76700237 84.35978969 296.62030081 81.86090242 295 77 C293.80375 76.87625 292.6075 76.7525 291.375 76.625 C288.83593823 76.36233844 286.86566897 75.94617384 284.48120117 74.99072266 C279.91230721 73.69045113 275.69110309 73.71348155 270.96484375 73.734375 C270.00856583 73.73246155 269.0522879 73.7305481 268.06703186 73.72857666 C266.05241634 73.72721994 264.03779192 73.73088043 262.02319336 73.73925781 C258.94429877 73.74997633 255.86598607 73.73933894 252.78710938 73.7265625 C250.82551955 73.72788395 248.86393009 73.73044606 246.90234375 73.734375 C245.52561745 73.72830231 245.52561745 73.72830231 244.12107849 73.72210693 C239.56019538 73.75549558 236.19224814 74.04133836 232 76 Z " fill="#FEFEFE" transform="translate(0,0)"/>
<path d="M0 0 C0.9553212 -0.00191345 1.9106424 -0.0038269 2.89491272 -0.00579834 C4.91130843 -0.00715672 6.92771299 -0.00348457 8.9440918 0.00488281 C12.02087179 0.01557536 15.09706636 0.00498171 18.17382812 -0.0078125 C20.13672003 -0.00649061 22.09961158 -0.00392762 24.0625 0 C24.9782933 -0.00404846 25.89408661 -0.00809692 26.83763123 -0.01226807 C31.68076913 0.02305756 35.53512179 0.45018018 40.09765625 2.265625 C41.50958106 2.43602972 42.92734461 2.56793188 44.34765625 2.640625 C45.58515625 2.846875 46.82265625 3.053125 48.09765625 3.265625 C49.1171875 5.10546875 49.1171875 5.10546875 50.09765625 7.265625 C51.69650221 8.96789712 51.69650221 8.96789712 53.53515625 10.453125 C54.13199219 10.96230469 54.72882813 11.47148438 55.34375 11.99609375 C57.18225444 13.46054307 57.18225444 13.46054307 60.09765625 14.265625 C62.18431212 17.97523543 62.45599434 21.72339977 62.75390625 25.88671875 C63.04093364 28.37095781 63.04093364 28.37095781 64.02929688 31.05639648 C69.4471949 47.33113817 71.72778944 64.40548576 72.515625 81.46533203 C72.59490234 83.13184814 72.59490234 83.13184814 72.67578125 84.83203125 C72.7109082 85.81115479 72.74603516 86.79027832 72.78222656 87.79907227 C72.94399352 90.51686099 72.94399352 90.51686099 75.09765625 93.265625 C75.29296875 95.74609375 75.29296875 95.74609375 75.22265625 98.453125 C75.20460938 99.35417969 75.1865625 100.25523437 75.16796875 101.18359375 C75.13316406 102.21419922 75.13316406 102.21419922 75.09765625 103.265625 C75.75765625 103.265625 76.41765625 103.265625 77.09765625 103.265625 C78.35708207 105.78447664 78.25621247 107.59141862 78.30859375 110.41015625 C78.34823242 111.99884521 78.34823242 111.99884521 78.38867188 113.61962891 C78.41638672 114.76093262 78.44410156 115.90223633 78.47265625 117.078125 C78.75823232 126.50083729 79.50900486 135.64856965 81.01123047 144.9519043 C82.09013243 151.71650074 82.52344153 158.36637531 82.69140625 165.2109375 C83.15001692 168.65933696 83.69925721 169.00182999 86.09765625 171.265625 C87.5230701 176.92510838 87.42071529 182.90885251 87.61523438 188.72070312 C87.64939453 189.48962891 87.68355469 190.25855469 87.71875 191.05078125 C87.74380615 191.74051025 87.7688623 192.43023926 87.79467773 193.14086914 C88.02379256 195.37062853 88.02379256 195.37062853 89.10205078 197.70874023 C90.16801474 200.4463176 90.36451493 202.46644257 90.40625 205.390625 C90.44395508 206.82148438 90.44395508 206.82148438 90.48242188 208.28125 C90.51757697 210.27076816 90.54882733 212.26035916 90.57617188 214.25 C90.72624043 219.66710898 91.16948288 222.64611485 94.09765625 227.265625 C94.72784263 230.49371502 94.97211178 233.73889634 95.22265625 237.015625 C95.36740369 238.73989708 95.51564887 240.46388035 95.66796875 242.1875 C95.72742676 242.94643555 95.78688477 243.70537109 95.84814453 244.48730469 C95.91877637 246.28741103 95.91877637 246.28741103 97.09765625 247.265625 C97.34190254 250.00058035 97.52480613 252.71221549 97.66015625 255.453125 C97.70261475 256.2579834 97.74507324 257.0628418 97.78881836 257.89208984 C98.13886578 265.0212247 98.20093327 272.12803515 98.09765625 279.265625 C99.08765625 279.595625 100.07765625 279.925625 101.09765625 280.265625 C101.11747559 280.96647217 101.13729492 281.66731934 101.15771484 282.3894043 C101.25321791 285.57767662 101.36279496 288.76531647 101.47265625 291.953125 C101.5190625 293.60731445 101.5190625 293.60731445 101.56640625 295.29492188 C101.60507812 296.36162109 101.64375 297.42832031 101.68359375 298.52734375 C101.7307251 299.99627075 101.7307251 299.99627075 101.77880859 301.49487305 C102.11302842 304.39920753 102.95324241 306.59127485 104.09765625 309.265625 C104.46728037 313.5946126 104.24085729 317.92619949 104.09765625 322.265625 C104.06067627 323.41804687 104.06067627 323.41804687 104.02294922 324.59375 C103.93747055 327.04772047 103.83365238 329.50018408 103.72265625 331.953125 C103.67661255 333.13878052 103.67661255 333.13878052 103.62963867 334.34838867 C103.33059549 340.03268576 103.33059549 340.03268576 101.09765625 342.265625 C100.76765625 343.255625 100.43765625 344.245625 100.09765625 345.265625 C96.79765625 345.595625 93.49765625 345.925625 90.09765625 346.265625 C90.09765625 347.585625 90.09765625 348.905625 90.09765625 350.265625 C87.12765625 350.265625 84.15765625 350.265625 81.09765625 350.265625 C80.76765625 351.255625 80.43765625 352.245625 80.09765625 353.265625 C76.7431986 354.25245091 73.42659691 354.96720341 70 355.63867188 C65.62559787 356.54608295 65.62559787 356.54608295 62.296875 359.34765625 C61.90113281 359.98058594 61.50539063 360.61351562 61.09765625 361.265625 C54.82480157 362.68589398 48.47587104 362.27681919 42.07421875 362.10546875 C38.97823129 361.93965398 38.97823129 361.93965398 37.09765625 364.265625 C34.77490448 364.66609944 32.44026268 365.0053354 30.09765625 365.265625 C30.09765625 364.605625 30.09765625 363.945625 30.09765625 363.265625 C25.4876602 363.05671279 21.85804299 363.73360396 17.47265625 365.140625 C16.36664063 365.48867188 15.260625 365.83671875 14.12109375 366.1953125 C11.20142396 367.14612077 11.20142396 367.14612077 9.0234375 368.36328125 C6.61805221 369.49034819 4.55195713 369.6447208 1.91015625 369.828125 C-1.30238173 369.81551747 -1.30238173 369.81551747 -3.90234375 371.265625 C-5.79749261 371.3166308 -7.69449984 371.30096644 -9.58984375 371.2578125 C-10.76417969 371.24105469 -11.93851563 371.22429687 -13.1484375 371.20703125 C-15.61995375 371.16331036 -18.09134143 371.11143936 -20.5625 371.05078125 C-26.85185005 370.97550067 -31.9272664 371.25869257 -37.78857422 373.55761719 C-41.59171897 374.8314818 -45.48455435 374.83846646 -49.46484375 374.953125 C-50.28275391 374.98728516 -51.10066406 375.02144531 -51.94335938 375.05664062 C-53.92924545 375.13793421 -55.91576634 375.20347749 -57.90234375 375.265625 C-57.90234375 375.925625 -57.90234375 376.585625 -57.90234375 377.265625 C-58.66417969 377.31460937 -59.42601562 377.36359375 -60.2109375 377.4140625 C-61.75974609 377.52621094 -61.75974609 377.52621094 -63.33984375 377.640625 C-64.34917969 377.71023438 -65.35851562 377.77984375 -66.3984375 377.8515625 C-69.05207138 378.16514688 -71.28887263 378.60621333 -73.84375 379.2734375 C-81.23517713 380.98867857 -88.92100409 380.68161484 -96.47314453 380.79736328 C-104.19054282 380.92735979 -111.40868081 381.28065063 -118.90234375 383.265625 C-135.61420816 385.9096928 -135.61420816 385.9096928 -140.90234375 383.265625 C-140.90234375 382.605625 -140.90234375 381.945625 -140.90234375 381.265625 C-141.74796875 381.41 -142.59359375 381.554375 -143.46484375 381.703125 C-149.69226561 382.72215767 -155.5927896 383.5130585 -161.90234375 383.265625 C-161.90234375 382.605625 -161.90234375 381.945625 -161.90234375 381.265625 C-162.49402344 381.141875 -163.08570313 381.018125 -163.6953125 380.890625 C-168.29377172 379.69037463 -171.20888034 378.60471271 -173.83984375 374.515625 C-175.78774445 370.90569299 -176.81779308 367.21648816 -177.90234375 363.265625 C-178.70671875 362.5540625 -178.70671875 362.5540625 -179.52734375 361.828125 C-181.92451649 359.10406506 -181.07420306 355.76009759 -180.90234375 352.265625 C-181.89234375 351.935625 -182.88234375 351.605625 -183.90234375 351.265625 C-185.07427778 347.74982291 -185.16184594 344.72088561 -185.33984375 341.015625 C-185.69876486 334.30562526 -186.47096677 327.73488408 -187.4375 321.08203125 C-188.09652169 315.6714078 -188.29093006 310.26994098 -188.4609375 304.82421875 C-188.93455662 301.00592655 -190.17517854 298.6661217 -191.90234375 295.265625 C-192.37890625 291.87109375 -192.37890625 291.87109375 -192.52734375 288.453125 C-192.36561585 284.54194932 -192.36561585 284.54194932 -193.90234375 281.265625 C-194.11660206 279.79259914 -194.2727943 278.31100353 -194.40234375 276.828125 C-194.48484375 275.93351562 -194.56734375 275.03890625 -194.65234375 274.1171875 C-194.81901042 272.21614583 -194.98567708 270.31510417 -195.15234375 268.4140625 C-195.23484375 267.51945312 -195.31734375 266.62484375 -195.40234375 265.703125 C-195.47453125 264.87683594 -195.54671875 264.05054688 -195.62109375 263.19921875 C-195.70599651 261.26265142 -195.70599651 261.26265142 -196.90234375 260.265625 C-197.11755341 258.66986029 -197.2732269 257.06596369 -197.40234375 255.4609375 C-197.48484375 254.48511719 -197.56734375 253.50929688 -197.65234375 252.50390625 C-197.73484375 251.47652344 -197.81734375 250.44914063 -197.90234375 249.390625 C-198.06566131 247.37212206 -198.23218824 245.35387552 -198.40234375 243.3359375 C-198.47453125 242.43633301 -198.54671875 241.53672852 -198.62109375 240.60986328 C-198.84068767 238.11564611 -198.84068767 238.11564611 -199.90234375 235.265625 C-199.97133475 233.20417393 -199.98702102 231.14061099 -199.96484375 229.078125 C-199.95582031 227.99144531 -199.94679688 226.90476562 -199.9375 225.78515625 C-199.92589844 224.95371094 -199.91429687 224.12226563 -199.90234375 223.265625 C-200.56234375 223.265625 -201.22234375 223.265625 -201.90234375 223.265625 C-201.90234375 222.605625 -201.90234375 221.945625 -201.90234375 221.265625 C-202.56234375 221.265625 -203.22234375 221.265625 -203.90234375 221.265625 C-204.11383057 219.59560425 -204.11383057 219.59560425 -204.32958984 217.8918457 C-204.86089489 213.70005514 -205.39448464 209.50855785 -205.92871094 205.31713867 C-206.15816047 203.51448163 -206.38701761 201.71174907 -206.61523438 199.90893555 C-208.77716516 181.95661381 -208.77716516 181.95661381 -211.9921875 164.17578125 C-213.12459151 158.7041556 -213.31159831 153.27602622 -213.46484375 147.703125 C-213.52446126 145.74335781 -213.58803578 143.78370554 -213.65625 141.82421875 C-213.68017822 140.97142334 -213.70410645 140.11862793 -213.72875977 139.23999023 C-213.68940808 137.26440717 -213.68940808 137.26440717 -214.90234375 136.265625 C-215.10536609 134.6459288 -215.24943146 133.01874274 -215.3671875 131.390625 C-215.44517578 130.40578125 -215.52316406 129.4209375 -215.60351562 128.40625 C-215.76104599 126.31278868 -215.91469341 124.21903155 -216.06445312 122.125 C-216.14373047 121.14015625 -216.22300781 120.1553125 -216.3046875 119.140625 C-216.37163818 118.23054688 -216.43858887 117.32046875 -216.50756836 116.3828125 C-216.70298218 115.33480469 -216.70298218 115.33480469 -216.90234375 114.265625 C-217.56234375 113.935625 -218.22234375 113.605625 -218.90234375 113.265625 C-221.04120717 105.28298193 -221.29725161 96.88533277 -221.52734375 88.66796875 C-221.56093994 87.5124501 -221.59453613 86.35693146 -221.62915039 85.16639709 C-221.69449946 82.74216569 -221.75473986 80.31779157 -221.81005859 77.89331055 C-221.90222125 74.2080233 -222.0369323 70.52573251 -222.171875 66.84179688 C-222.23050398 64.47141798 -222.28657977 62.10097427 -222.33984375 59.73046875 C-222.38641113 58.64370346 -222.43297852 57.55693817 -222.48095703 56.4372406 C-222.59010604 48.32763401 -220.34288584 43.00296499 -215.90234375 36.265625 C-214.91234375 36.595625 -213.92234375 36.925625 -212.90234375 37.265625 C-212.90234375 38.255625 -212.90234375 39.245625 -212.90234375 40.265625 C-212.24234375 40.265625 -211.58234375 40.265625 -210.90234375 40.265625 C-211.14984375 39.688125 -211.39734375 39.110625 -211.65234375 38.515625 C-211.77609375 37.401875 -211.77609375 37.401875 -211.90234375 36.265625 C-210.08984375 34.015625 -210.08984375 34.015625 -207.90234375 32.265625 C-207.24234375 32.265625 -206.58234375 32.265625 -205.90234375 32.265625 C-205.90234375 31.605625 -205.90234375 30.945625 -205.90234375 30.265625 C-205.25007813 30.14445312 -204.5978125 30.02328125 -203.92578125 29.8984375 C-203.05179688 29.73085937 -202.1778125 29.56328125 -201.27734375 29.390625 C-200.41882813 29.22820312 -199.5603125 29.06578125 -198.67578125 28.8984375 C-195.83699468 28.2989595 -195.83699468 28.2989595 -192.8984375 27.2578125 C-182.66452184 23.86874525 -171.33131854 23.73874986 -160.66088867 22.96289062 C-154.57278064 22.51948268 -154.57278064 22.51948268 -148.52734375 21.703125 C-144.60708559 21.04974864 -140.7645686 21.29837195 -136.8046875 21.42578125 C-133.72223831 21.25568648 -131.70835132 20.50008612 -128.90234375 19.265625 C-127.43150583 18.89727603 -125.9517611 18.56247838 -124.46484375 18.265625 C-121.91271282 17.75428571 -119.58838701 17.15270685 -117.1328125 16.26953125 C-113.30757714 15.08079426 -109.62283509 14.62126282 -105.65234375 14.203125 C-100.62535104 13.81736527 -100.62535104 13.81736527 -95.90234375 12.265625 C-94.15147717 11.98778471 -92.39328107 11.75539223 -90.6328125 11.546875 C-89.57900391 11.41925781 -88.52519531 11.29164062 -87.43945312 11.16015625 C-86.33408203 11.02996094 -85.22871094 10.89976563 -84.08984375 10.765625 C-81.91646228 10.5069196 -79.74327685 10.24656083 -77.5703125 9.984375 C-76.12047974 9.81325195 -76.12047974 9.81325195 -74.64135742 9.63867188 C-72.82855012 9.39177201 -71.02248157 9.08828657 -69.22900391 8.72680664 C-66.47125509 8.18017626 -63.89846179 8.16928623 -61.08984375 8.203125 C-60.11402344 8.21214844 -59.13820312 8.22117187 -58.1328125 8.23046875 C-57.02873047 8.24787109 -57.02873047 8.24787109 -55.90234375 8.265625 C-55.90234375 7.605625 -55.90234375 6.945625 -55.90234375 6.265625 C-53.55383178 5.09136901 -51.9856605 5.08098435 -49.3671875 4.984375 C-48.47580078 4.94699219 -47.58441406 4.90960938 -46.66601562 4.87109375 C-44.77800022 4.80063568 -42.88997935 4.73032378 -41.00195312 4.66015625 C-40.11185547 4.62277344 -39.22175781 4.58539063 -38.3046875 4.546875 C-37.07480103 4.50143555 -37.07480103 4.50143555 -35.82006836 4.45507812 C-33.89488951 4.46955884 -33.89488951 4.46955884 -32.90234375 3.265625 C-29.16492047 3.02730752 -25.43404414 2.86983112 -21.69140625 2.74804688 C-20.89992187 2.71388672 -20.1084375 2.67972656 -19.29296875 2.64453125 C-18.57141602 2.6194751 -17.84986328 2.59441895 -17.10644531 2.56860352 C-14.84545581 2.36858331 -14.84545581 2.36858331 -12.74682617 1.25854492 C-8.52016002 -0.21685215 -4.44513386 -0.01960733 0 0 Z M16.91015625 23.890625 C1.67997795 26.28814131 -13.61120023 28.13850215 -28.91674805 29.98291016 C-40.10426327 31.34288621 -51.23978596 32.90007955 -62.37271118 34.65101624 C-71.62805769 36.09551794 -80.89865121 37.40167685 -90.1796875 38.66796875 C-91.31310672 38.8226808 -91.31310672 38.8226808 -92.46942329 38.98051834 C-97.14180084 39.61761276 -101.81459825 40.2515844 -106.48754883 40.88446045 C-113.46866159 41.83018929 -120.44925949 42.77970062 -127.4296875 43.73046875 C-128.19081408 43.83402868 -128.95194065 43.93758862 -129.73613167 44.04428673 C-142.86481122 45.8319518 -155.98329577 47.68686233 -169.09629822 49.58604431 C-181.01197236 51.30768043 -192.94745574 52.84322537 -204.90234375 54.265625 C-203.66685291 67.13656544 -202.0215995 79.90695501 -200.10351562 92.69311523 C-199.313374 97.96457419 -198.53731037 103.23810226 -197.76171875 108.51171875 C-197.60384888 109.58432953 -197.445979 110.65694031 -197.2833252 111.76205444 C-195.74573265 122.25295745 -194.3145359 132.75722935 -192.90234375 143.265625 C-190.51652912 161.00225997 -187.9746358 178.71322167 -185.34960938 196.41601562 C-183.81395096 206.8034199 -182.37361191 217.1967763 -181.03630066 227.61158752 C-179.78975499 237.26076305 -178.3909381 246.88575967 -176.97067261 256.51068115 C-176.1978862 261.74873351 -175.43146731 266.9877195 -174.6640625 272.2265625 C-174.5117366 273.26535553 -174.35941071 274.30414856 -174.20246887 275.37442017 C-172.89545025 284.29373776 -171.61118822 293.2161613 -170.33984375 302.140625 C-170.14503657 303.50553629 -169.95021236 304.87044514 -169.75537109 306.23535156 C-168.73515246 313.38830233 -167.72172407 320.54218857 -166.71327209 327.69680786 C-166.16302052 331.5972646 -165.61059011 335.49741126 -165.05789185 339.39752197 C-164.7893196 341.29690921 -164.52178824 343.19644393 -164.25534058 345.09613037 C-163.88499258 347.73632584 -163.51122009 350.37601595 -163.13671875 353.015625 C-163.02652908 353.80760284 -162.91633942 354.59958069 -162.80281067 355.41555786 C-162.36459489 358.48431875 -161.88505017 361.31750574 -160.90234375 364.265625 C-156.03752175 364.35305441 -151.40882534 364.05215362 -146.58984375 363.390625 C-144.77033203 363.14699219 -144.77033203 363.14699219 -142.9140625 362.8984375 C-140.02257819 362.47118711 -137.17620586 361.91902016 -134.31591797 361.31860352 C-128.99227691 360.24646553 -123.65726206 359.48294071 -118.2734375 358.78515625 C-117.26596466 358.65157211 -116.25849182 358.51798798 -115.2204895 358.38035583 C-113.05448211 358.09322009 -110.88829798 357.80741497 -108.72195435 357.52282715 C-102.91379768 356.7591325 -97.10722304 355.98364281 -91.30078125 355.20703125 C-90.10947098 355.04774139 -88.91816071 354.88845154 -87.69075012 354.72433472 C-75.27218625 353.05743519 -62.86728778 351.29803328 -50.46484375 349.515625 C-49.47378632 349.37323395 -48.48272888 349.2308429 -47.4616394 349.08413696 C-39.99739088 348.01092212 -32.53344306 346.93559396 -25.07012939 345.855896 C-15.27399099 344.43950322 -5.48360493 343.04336604 4.34765625 341.890625 C14.86285947 340.61829156 25.32607384 339.05328773 35.7923584 337.43618774 C45.77960422 335.89366329 55.77173579 334.45483243 65.80688477 333.25390625 C71.33687216 332.57375021 76.67457316 331.55032714 82.09765625 330.265625 C81.59367037 320.82506533 80.46171047 311.6890236 78.78515625 302.390625 C76.99743096 292.08017212 75.4588484 281.784963 74.22265625 271.390625 C72.54818473 257.37798886 70.58090167 243.4162303 68.53515625 229.453125 C68.31318573 227.93371307 68.31318573 227.93371307 68.08673096 226.38360596 C66.62884883 216.41760065 65.13804669 206.45937492 63.53515625 196.515625 C62.14966917 187.87990908 61.03006736 179.22090727 59.96362305 170.54077148 C58.55114799 159.07847389 57.11416561 147.64009449 55.09765625 136.265625 C53.19607219 125.49029988 51.83176432 114.67031596 50.48007202 103.81567383 C48.38845069 87.06619963 45.98059648 70.36900892 43.50854492 53.671875 C43.2217869 51.73438322 42.93508295 49.79688344 42.6484375 47.859375 C42.51231552 46.93995117 42.37619354 46.02052734 42.23594666 45.07324219 C41.1171108 37.47984433 40.07905511 29.87799639 39.09765625 22.265625 C31.50426036 22.05011807 24.39292193 22.64896943 16.91015625 23.890625 Z " fill="#050505" transform="translate(246.90234375,73.734375)"/>
<path d="M0 0 C0.71829936 4.99791169 1.43015964 9.99668395 2.13623047 14.99633789 C2.37700205 16.69482785 2.61948995 18.39307547 2.86376953 20.09106445 C3.21585179 22.54055103 3.5616247 24.99086077 3.90625 27.44140625 C4.07030334 28.56839684 4.07030334 28.56839684 4.2376709 29.71815491 C4.85715119 34.1751411 5.19507303 38.48675249 5 43 C2.80001735 45.19998265 -1.95131443 44.91081107 -5.00390625 45.3125 C-5.95954468 45.44184937 -6.91518311 45.57119873 -7.89978027 45.70446777 C-10.00261886 45.98875729 -12.10571131 46.27117342 -14.20901489 46.55200195 C-20.01556662 47.32770954 -25.82014816 48.11794008 -31.625 48.90625 C-32.86250504 49.07394897 -34.10001007 49.24164795 -35.37501526 49.41442871 C-49.26389212 51.29995058 -63.14302483 53.25395397 -77.02179337 55.21214676 C-80.44634824 55.69519964 -83.87100516 56.17752802 -87.2956543 56.65991211 C-91.3553 57.23179063 -95.41493717 57.8037294 -99.47453308 58.3759613 C-118.86188268 61.10865368 -138.25089089 63.82936149 -157.64245605 66.53198242 C-159.98240387 66.85815439 -162.32232712 67.18450256 -164.66223145 67.51098633 C-172.49257889 68.60345355 -180.32333752 69.69290379 -188.15460205 70.77877808 C-190.67648598 71.1288029 -193.19825933 71.47962559 -195.71990967 71.83132935 C-199.25044989 72.3235152 -202.78134913 72.81299686 -206.3125 73.30078125 C-207.41494049 73.45358047 -208.51738098 73.6063797 -209.65322876 73.7638092 C-217.04884584 74.77419338 -224.45058545 75.65813645 -231.88793945 76.30110168 C-233.59984206 76.46647232 -235.3025452 76.72322355 -237 77 C-237.495 77.99 -237.495 77.99 -238 79 C-238.63132179 74.73007758 -239.25378504 70.45890356 -239.875 66.1875 C-240.13603516 64.4230957 -240.13603516 64.4230957 -240.40234375 62.62304688 C-241.87648886 52.44052605 -242.97479424 42.23618965 -244 32 C-243.10547119 31.88519287 -242.21094238 31.77038574 -241.28930664 31.65209961 C-220.62584862 28.99000013 -199.99180898 26.16356615 -179.37207031 23.18170166 C-160.48222144 20.45425247 -141.56968192 17.92285068 -122.64038086 15.48486328 C-112.06892334 14.11572887 -101.52633137 12.64270565 -90.99609375 10.984375 C-78.36352467 8.99957497 -65.69948701 7.42442083 -53 5.9375 C-48.8535629 5.45156418 -44.70766508 4.96151869 -40.5625 4.46484375 C-39.07399536 4.28711929 -39.07399536 4.28711929 -37.55541992 4.10580444 C-30.65559395 3.25995228 -23.83238499 2.14660136 -16.9909668 0.92381287 C-11.28501248 -0.05360674 -5.77282789 -0.34331796 0 0 Z " fill="#FAC9D5" transform="translate(286,96)"/>
<path d="M0 0 C1.98 0 3.96 0 6 0 C7.86221286 5.86989476 8.8075867 11.69848495 9.65722656 17.79003906 C9.81088936 18.86306715 9.96455215 19.93609524 10.1228714 21.04163933 C10.63347041 24.61565173 11.13705449 28.19061607 11.640625 31.765625 C12.00261418 34.30986368 12.36503012 36.85404167 12.72784424 39.39816284 C13.50272962 44.83878123 14.27460017 50.27981359 15.04370117 55.72125244 C16.15459771 63.58087786 17.27126389 71.43967545 18.38917542 79.29830575 C22.26207762 106.52701496 26.10934469 133.75935406 29.953125 160.9921875 C30.18088308 162.6056478 30.18088308 162.6056478 30.41324234 164.25170326 C30.86358184 167.44196736 31.31388221 170.63223698 31.76416016 173.82250977 C31.90921556 174.85022397 32.05427097 175.87793818 32.203722 176.93679523 C32.92169989 182.0244098 33.63915974 187.11209662 34.35565186 192.19992065 C37.2116302 212.47861321 40.08911295 232.75329987 43.0859375 253.01171875 C43.20701622 253.83080719 43.32809494 254.64989563 43.45284271 255.49380493 C44.57620186 263.09014843 45.70385592 270.68580836 46.84784508 278.27907467 C47.14970051 280.28576113 47.4497841 282.29270356 47.74917603 284.29975891 C48.10663805 286.69336806 48.46750873 289.08647194 48.83261108 291.47892761 C48.98823517 292.52462418 49.14385925 293.57032074 49.30419922 294.64770508 C49.50733231 295.9918322 49.50733231 295.9918322 49.71456909 297.3631134 C50.02810232 300.25961666 50.04749635 303.08880732 50 306 C42.84081951 307.71306272 35.70068277 308.81912554 28.40625 309.78515625 C26.43561796 310.05164753 24.46498706 310.31814729 22.49438858 310.58488655 C20.34136067 310.87572252 18.18810582 311.16482528 16.03479004 311.45352173 C7.9644168 312.5361778 -0.10374644 313.63513694 -8.171875 314.734375 C-9.06463387 314.85591761 -9.95739273 314.97746021 -10.8772049 315.10268593 C-28.07542523 317.44582958 -45.26512952 319.84875703 -62.453125 322.265625 C-63.44526819 322.40511979 -63.44526819 322.40511979 -64.45745468 322.54743266 C-77.18924916 324.33764888 -89.92055905 326.13130214 -102.65161133 327.92678833 C-116.17175828 329.83347954 -129.69225253 331.73757145 -143.21450806 333.62926006 C-148.49354169 334.36784246 -153.77227372 335.10836854 -159.05004883 335.855896 C-163.52830204 336.49014118 -168.00743797 337.11764971 -172.48749542 337.73901939 C-174.06702806 337.95933973 -175.64620116 338.18225619 -177.22496796 338.40799904 C-179.33689668 338.70961279 -181.44990162 339.00193265 -183.56347656 339.29174805 C-184.72188049 339.45434616 -185.88028442 339.61694427 -187.0737915 339.7844696 C-189.73161759 339.98023225 -191.50219564 339.8508823 -194 339 C-194 336.69 -194 334.38 -194 332 C-193.03320312 331.87882812 -192.06640625 331.75765625 -191.0703125 331.6328125 C-189.76835937 331.46523438 -188.46640625 331.29765625 -187.125 331.125 C-185.84882813 330.96257812 -184.57265625 330.80015625 -183.2578125 330.6328125 C-180.27365422 330.22024487 -177.3457303 329.67396664 -174.39819336 329.05297852 C-169.0797843 327.97919075 -163.75014136 327.21669658 -158.37109375 326.51953125 C-157.36362091 326.38594711 -156.35614807 326.25236298 -155.31814575 326.11473083 C-153.15213836 325.82759509 -150.98595423 325.54178997 -148.8196106 325.25720215 C-143.01145393 324.4935075 -137.20487929 323.71801781 -131.3984375 322.94140625 C-130.20712723 322.78211639 -129.01581696 322.62282654 -127.78840637 322.45870972 C-115.3698425 320.79181019 -102.96494403 319.03240828 -90.5625 317.25 C-89.57144257 317.10760895 -88.58038513 316.9652179 -87.55929565 316.81851196 C-80.09504713 315.74529712 -72.63109931 314.66996896 -65.16778564 313.590271 C-55.37164724 312.17387822 -45.58126118 310.77774104 -35.75 309.625 C-25.94903065 308.43908844 -16.19365596 307.0029363 -6.4375 305.5 C9.67215022 303.01857709 25.79738864 300.78437295 42 299 C41.80889648 297.8346875 41.61779297 296.669375 41.42089844 295.46875 C38.16011589 275.5313202 34.93955154 255.61678954 32.56176758 235.55200195 C31.06084947 223.06698454 29.26014253 210.62920282 27.4375 198.1875 C27.28933838 197.17328979 27.14117676 196.15907959 26.98852539 195.11413574 C25.530826 185.14941278 24.04018431 175.19247112 22.4375 165.25 C21.05201292 156.61428408 19.93241111 147.95528227 18.8659668 139.27514648 C17.45349174 127.81284889 16.01650936 116.37446949 14 105 C12.09898509 94.22789994 10.73185141 83.41107229 9.38442993 72.55911255 C7.26609404 55.5381015 4.79125342 38.57557046 2.23510742 21.61523438 C2.01244202 20.12160118 2.01244202 20.12160118 1.78527832 18.59779358 C1.50711747 16.73202828 1.22544749 14.86678134 0.9395752 13.00218201 C0.28908707 8.62285984 -0.15731358 4.44331527 0 0 Z " fill="#2C0916" transform="translate(287,105)"/>
<path d="M0 0 C0.33 0.66 0.66 1.32 1 2 C1.66 2 2.32 2 3 2 C3.06058594 2.83144531 3.12117188 3.66289062 3.18359375 4.51953125 C3.26738281 5.60621094 3.35117187 6.69289063 3.4375 7.8125 C3.55931641 9.43091797 3.55931641 9.43091797 3.68359375 11.08203125 C3.90212461 14.05989905 3.90212461 14.05989905 5 17 C5.19068221 18.61597469 5.34086819 20.23691885 5.46484375 21.859375 C5.54283203 22.81070312 5.62082031 23.76203125 5.70117188 24.7421875 C5.85747999 26.73156345 6.01116881 28.7211471 6.16210938 30.7109375 C6.60680331 36.07618791 7.46042354 40.82255337 9 46 C9.25043574 48.45272114 9.43911828 50.91261579 9.5625 53.375 C9.40852358 57.50694621 9.40852358 57.50694621 11 61 C11.21145071 63.07926529 11.36904772 65.1641172 11.5 67.25 C11.75391469 71.25822468 12.11567191 75.07947882 13 79 C5.81189809 71.48516618 6.81830355 56.67028881 7 47 C6.35635498 46.75378906 5.71270996 46.50757813 5.04956055 46.25390625 C3 45 3 45 2.37817383 43.15234375 C2.32169678 42.42144531 2.26521973 41.69054687 2.20703125 40.9375 C2.0977832 39.74253906 2.0977832 39.74253906 1.98632812 38.5234375 C1.92896484 37.69070313 1.87160156 36.85796875 1.8125 36 C1.67617567 34.35391558 1.53698713 32.70806512 1.39453125 31.0625 C1.34143799 30.33160156 1.28834473 29.60070312 1.23364258 28.84765625 C1.09205877 26.90789214 1.09205877 26.90789214 0 25 C-0.084915 23.1136088 -0.107193 21.22421485 -0.09765625 19.3359375 C-0.09443359 18.21445312 -0.09121094 17.09296875 -0.08789062 15.9375 C-0.07951172 14.761875 -0.07113281 13.58625 -0.0625 12.375 C-0.05798828 11.19164062 -0.05347656 10.00828125 -0.04882812 8.7890625 C-0.03701467 5.85932493 -0.02054258 2.92968728 0 0 Z " fill="#3B393E" transform="translate(44,295)"/>
<path d="M0 0 C2.475 0.99 2.475 0.99 5 2 C5 2.66 5 3.32 5 4 C11.93 3.34 18.86 2.68 26 2 C26 2.66 26 3.32 26 4 C35.25599658 4.27675737 43.87995448 3.53140195 53 2 C48.67863398 6.8117338 48.67863398 6.8117338 45.578125 7.671875 C44.80984375 7.69765625 44.0415625 7.7234375 43.25 7.75 C40.32654961 7.65629876 40.32654961 7.65629876 38 9 C31.66711248 9.53082683 26.06273355 8.79636549 20 7 C20 6.34 20 5.68 20 5 C16.51190809 5.77030122 16.51190809 5.77030122 13 7 C12.67 7.99 12.34 8.98 12 10 C10.68 9.67 9.36 9.34 8 9 C8 8.34 8 7.68 8 7 C7.4225 6.938125 6.845 6.87625 6.25 6.8125 C3.09559388 5.6734089 1.88882399 3.69831998 0 1 C0 0.67 0 0.34 0 0 Z " fill="#B5B4B6" transform="translate(80,453)"/>
<path d="M0 0 C1.94140625 0.3828125 1.94140625 0.3828125 4.44140625 2.0078125 C6.39703107 5.10421846 6.54165102 6.78134385 5.94140625 10.3828125 C4.37890625 12.7578125 4.37890625 12.7578125 1.94140625 14.3828125 C-1.4904185 14.80426466 -3.87406916 15.0540431 -6.93359375 13.3203125 C-8.66585528 10.33697319 -8.93847599 7.80616876 -9.05859375 4.3828125 C-7.34870942 -0.06288675 -4.54971418 -0.25136542 0 0 Z " fill="#3D3A42" transform="translate(86.05859375,215.6171875)"/>
<path d="M0 0 C0.33 0 0.66 0 1 0 C1.15063379 8.56938908 0.92458006 17.12370819 0.625 25.6875 C0.59414307 26.76322266 0.56328613 27.83894531 0.53149414 28.94726562 C0.4927417 29.95853516 0.45398926 30.96980469 0.4140625 32.01171875 C0.3826416 32.92397217 0.3512207 33.83622559 0.31884766 34.77612305 C0 37 0 37 -2 39 C-5.125 39.125 -5.125 39.125 -8 39 C-8.33 39.99 -8.66 40.98 -9 42 C-9.66 42 -10.32 42 -11 42 C-11 42.66 -11 43.32 -11 44 C-16.94 44 -22.88 44 -29 44 C-29 43.67 -29 43.34 -29 43 C-28.195625 42.87625 -27.39125 42.7525 -26.5625 42.625 C-25.716875 42.41875 -24.87125 42.2125 -24 42 C-23.67 41.34 -23.34 40.68 -23 40 C-20.03 40 -17.06 40 -14 40 C-14 38.68 -14 37.36 -14 36 C-9.05 35.505 -9.05 35.505 -4 35 C-3.67 33.02 -3.34 31.04 -3 29 C-2.67 29 -2.34 29 -2 29 C-1.34 19.43 -0.68 9.86 0 0 Z " fill="#98979A" transform="translate(351,384)"/>
<path d="M0 0 C0.99 0 1.98 0 3 0 C3.33 3.96 3.66 7.92 4 12 C3.34 12 2.68 12 2 12 C1.67 10.68 1.34 9.36 1 8 C0.484375 8.804375 -0.03125 9.60875 -0.5625 10.4375 C-3.63205757 13.66447078 -5.64868459 13.74896257 -10 14 C-10.33 10.04 -10.66 6.08 -11 2 C-7.6875 1.3125 -7.6875 1.3125 -4 1 C-2.0625 2.4375 -2.0625 2.4375 -1 4 C-0.67 2.68 -0.34 1.36 0 0 Z " fill="#58353F" transform="translate(171,127)"/>
<path d="M0 0 C1.98 0 3.96 0 6 0 C6 2.97 6 5.94 6 9 C0.04296875 10.7578125 0.04296875 10.7578125 -2 11 C-2.99 10.34 -3.98 9.68 -5 9 C-5 9.66 -5 10.32 -5 11 C-7.375 11.625 -7.375 11.625 -10 12 C-10.66 11.34 -11.32 10.68 -12 10 C-11.625 7.375 -11.625 7.375 -11 5 C-7.3791799 3.98617037 -3.72188582 3.50102309 0 3 C0 2.01 0 1.02 0 0 Z " fill="#B5B4B6" transform="translate(121,242)"/>
<path d="M0 0 C0 0.33 0 0.66 0 1 C-5.94 1.33 -11.88 1.66 -18 2 C-18 2.66 -18 3.32 -18 4 C-18.76183594 4.04898437 -19.52367187 4.09796875 -20.30859375 4.1484375 C-21.34113281 4.22320312 -22.37367188 4.29796875 -23.4375 4.375 C-24.44683594 4.44460938 -25.45617187 4.51421875 -26.49609375 4.5859375 C-30.07886699 4.9261529 -30.07886699 4.9261529 -33.78125 6 C-41.37616171 7.76260331 -49.30545648 7.47536146 -57.0625 7.625 C-58.7077014 7.66324919 -60.35288426 7.70230477 -61.99804688 7.7421875 C-65.99854457 7.83743071 -69.99913565 7.92173259 -74 8 C-70.39359333 5.59572889 -67.66318794 5.65421124 -63.48828125 5.5859375 C-62.39594429 5.55688828 -62.39594429 5.55688828 -61.28153992 5.5272522 C-58.95864525 5.46753624 -56.63570081 5.42110383 -54.3125 5.375 C-52.73630668 5.33681279 -51.16013405 5.29776062 -49.58398438 5.2578125 C-45.72282465 5.16184152 -41.86156724 5.07778151 -38 5 C-38 4.34 -38 3.68 -38 3 C-25.71758041 -0.68472588 -12.70592684 -0.14851083 0 0 Z " fill="#757377" transform="translate(207,447)"/>
<path d="M0 0 C0 0.99 0 1.98 0 3 C-1.32 3 -2.64 3 -4 3 C-4 3.66 -4 4.32 -4 5 C-2.68 4.67 -1.36 4.34 0 4 C-0.33 4.99 -0.66 5.98 -1 7 C-3.4375 6.625 -3.4375 6.625 -6 6 C-6.33 5.34 -6.66 4.68 -7 4 C-7.99 5.485 -7.99 5.485 -9 7 C-10.32 6.34 -11.64 5.68 -13 5 C-13.99 6.32 -14.98 7.64 -16 9 C-17.32 8.67 -18.64 8.34 -20 8 C-20.625 5.625 -20.625 5.625 -21 3 C-18.20091867 0.20091867 -15.86918237 0.27637017 -12 0 C-11.34 0.66 -10.68 1.32 -10 2 C-9.67 1.34 -9.34 0.68 -9 0 C-5.75266665 -1.2757381 -3.32967418 -0.83241855 0 0 Z " fill="#626063" transform="translate(135,188)"/>
<path d="M0 0 C0 0.99 0 1.98 0 3 C-1.32 3 -2.64 3 -4 3 C-4 3.66 -4 4.32 -4 5 C-2.68 4.67 -1.36 4.34 0 4 C-0.33 4.99 -0.66 5.98 -1 7 C-5.875 6.125 -5.875 6.125 -7 5 C-7.33 5.99 -7.66 6.98 -8 8 C-8.99 8 -9.98 8 -11 8 C-11.66 6.68 -12.32 5.36 -13 4 C-14.98 4.99 -14.98 4.99 -17 6 C-16.34 6.33 -15.68 6.66 -15 7 C-15 7.66 -15 8.32 -15 9 C-16.65 8.67 -18.3 8.34 -20 8 C-20.625 5.625 -20.625 5.625 -21 3 C-19 1 -19 1 -15.5 0.8125 C-12 1 -12 1 -10 2 C-9.67 1.34 -9.34 0.68 -9 0 C-5.75266665 -1.2757381 -3.32967418 -0.83241855 0 0 Z " fill="#817F82" transform="translate(185,181)"/>
<path d="M0 0 C0.99 0.495 0.99 0.495 2 1 C2.39477539 3.42089844 2.39477539 3.42089844 2.59765625 6.609375 C2.67693359 7.75664062 2.75621094 8.90390625 2.83789062 10.0859375 C2.91201172 11.29507812 2.98613281 12.50421875 3.0625 13.75 C3.21734147 16.11997032 3.37479718 18.48977162 3.53515625 20.859375 C3.600979 21.91608398 3.66680176 22.97279297 3.73461914 24.06152344 C3.97985602 26.77695226 4.44786305 29.33395942 5 32 C5.24852794 35.43106632 5.43833613 38.85746487 5.60546875 42.29296875 C5.77423378 45.40639251 6.00851943 48.0255583 7 51 C7.66 51.33 8.32 51.66 9 52 C9.19631493 53.99586842 9.39206076 55.99179896 9.58203125 57.98828125 C10.18373778 60.88434541 11.71279403 62.2292599 14 64 C13.67 64.99 13.34 65.98 13 67 C8.57409428 62.33485613 6.73256886 58.14593683 5 52 C4.505 50.515 4.505 50.515 4 49 C3.72889239 45.77683176 3.55520499 42.5538617 3.37890625 39.32421875 C3.13411244 36.03828344 3.13411244 36.03828344 2.00219727 33.23901367 C0.89239633 29.65223436 0.68207278 26.60083824 0.5859375 22.8515625 C0.56657135 22.19417084 0.5472052 21.53677917 0.5272522 20.85946655 C0.46797539 18.78143865 0.42128206 16.70335376 0.375 14.625 C0.33677222 13.2070085 0.29771777 11.78903903 0.2578125 10.37109375 C0.16231829 6.91426539 0.07809811 3.45727017 0 0 Z " fill="#9B9A9C" transform="translate(57,374)"/>
<path d="M0 0 C0.33 0 0.66 0 1 0 C1 3.96 1 7.92 1 12 C1.66 12 2.32 12 3 12 C4.18055405 14.36110811 4.28086614 16.13088958 4.5 18.76171875 C4.62375 20.19354492 4.62375 20.19354492 4.75 21.65429688 C4.87375 23.15573242 4.87375 23.15573242 5 24.6875 C5.51557377 30.82202232 6.04702588 36.91628126 7 43 C5.04956055 42.25390625 5.04956055 42.25390625 3 41 C2.37817383 39.15234375 2.37817383 39.15234375 2.20703125 36.9375 C2.0977832 35.74253906 2.0977832 35.74253906 1.98632812 34.5234375 C1.92896484 33.69070313 1.87160156 32.85796875 1.8125 32 C1.67617567 30.35391558 1.53698713 28.70806512 1.39453125 27.0625 C1.34143799 26.33160156 1.28834473 25.60070312 1.23364258 24.84765625 C1.09205877 22.90789214 1.09205877 22.90789214 0 21 C-0.08400529 19.40552536 -0.10727467 17.80759455 -0.09765625 16.2109375 C-0.09443359 15.26992188 -0.09121094 14.32890625 -0.08789062 13.359375 C-0.07951172 12.37453125 -0.07113281 11.3896875 -0.0625 10.375 C-0.05798828 9.38242187 -0.05347656 8.38984375 -0.04882812 7.3671875 C-0.03702145 4.9113984 -0.020554 2.45572896 0 0 Z " fill="#9C9B9D" transform="translate(44,299)"/>
<path d="M0 0 C1.48693359 0.13535156 1.48693359 0.13535156 3.00390625 0.2734375 C5.4375 0.625 5.4375 0.625 6.4375 1.625 C6.47813832 3.29117115 6.480221 4.95888095 6.4375 6.625 C2.12080172 7.56927775 -2.16799251 8.18554925 -6.5625 8.625 C-7.5625 7.625 -7.5625 7.625 -7.625 4.0625 C-7.604375 2.928125 -7.58375 1.79375 -7.5625 0.625 C-4.85446778 -0.72901611 -2.99767683 -0.28921523 0 0 Z " fill="#B0AFB1" transform="translate(124.5625,388.375)"/>
<path d="M0 0 C0.93423645 3.01031744 1.04449911 3.86650268 0 7 C-3.875 6.125 -3.875 6.125 -5 5 C-5.33 5.99 -5.66 6.98 -6 8 C-8.97 8 -11.94 8 -15 8 C-15.625 5.625 -15.625 5.625 -16 3 C-15.34 2.34 -14.68 1.68 -14 1 C-13.360625 1.165 -12.72125 1.33 -12.0625 1.5 C-11.381875 1.665 -10.70125 1.83 -10 2 C-6.3558226 -0.4294516 -4.28758728 -0.16179575 0 0 Z " fill="#9F9DA0" transform="translate(128,268)"/>
<path d="M0 0 C0 2.97 0 5.94 0 9 C-0.33 7.68 -0.66 6.36 -1 5 C-1.99 5 -2.98 5 -4 5 C-4 6.65 -4 8.3 -4 10 C-4.66 10 -5.32 10 -6 10 C-6.33 9.34 -6.66 8.68 -7 8 C-7.99 9.485 -7.99 9.485 -9 11 C-11.625 11.1875 -11.625 11.1875 -14 11 C-14.33 8.03 -14.66 5.06 -15 2 C-13.329375 2.2475 -13.329375 2.2475 -11.625 2.5 C-8.27967967 3.0455458 -8.27967967 3.0455458 -6 3 C-5.525625 2.505 -5.05125 2.01 -4.5625 1.5 C-3 0 -3 0 0 0 Z " fill="#615F63" transform="translate(117,289)"/>
<path d="M0 0 C1.423125 0.165 2.84625 0.33 4.3125 0.5 C6.91813299 0.80210238 9.37165722 1 12 1 C12.33 3.31 12.66 5.62 13 8 C9.0186217 9.3271261 5.14954773 9.06915913 1 9 C0.67 6.03 0.34 3.06 0 0 Z " fill="#E0DFE0" transform="translate(99,269)"/>
<path d="M0 0 C0.99 0 1.98 0 3 0 C3.33 1.98 3.66 3.96 4 6 C4.66 6 5.32 6 6 6 C7.18771723 9.42943519 6.80226223 11.37784675 5.5625 14.75 C5.27503906 15.54921875 4.98757812 16.3484375 4.69140625 17.171875 C4.46324219 17.77515625 4.23507813 18.3784375 4 19 C3.01 19 2.02 19 1 19 C-0.65497356 15.69005287 -0.10084335 12.00877 -0.0625 8.375 C-0.05798828 7.57320313 -0.05347656 6.77140625 -0.04882812 5.9453125 C-0.03703168 3.96350994 -0.01909605 1.98174567 0 0 Z " fill="#2F2D32" transform="translate(57,300)"/>
<path d="M0 0 C1.64630328 0.14042877 3.29204179 0.28749329 4.9375 0.4375 C6.31228516 0.55931641 6.31228516 0.55931641 7.71484375 0.68359375 C10 1 10 1 11 2 C11.04080783 3.99958364 11.04254356 6.00045254 11 8 C7.52674819 9.1577506 4.63932552 9.06866652 1 9 C-1.125 2.25 -1.125 2.25 0 0 Z " fill="#D2D1D2" transform="translate(88,191)"/>
<path d="M0 0 C0 1.98 0 3.96 0 6 C-0.66 6 -1.32 6 -2 6 C-2 4.35 -2 2.7 -2 1 C-2.66 1 -3.32 1 -4 1 C-4 2.98 -4 4.96 -4 7 C-4.66 7 -5.32 7 -6 7 C-6 5.02 -6 3.04 -6 1 C-6.99 1.495 -6.99 1.495 -8 2 C-8.65555119 4.52733235 -8.65555119 4.52733235 -9 7 C-9.66 6.01 -10.32 5.02 -11 4 C-11.99 6.31 -12.98 8.62 -14 11 C-14.99 10.67 -15.98 10.34 -17 10 C-17 8.68 -17 7.36 -17 6 C-17.30404678 4.32774271 -17.63128912 2.65919896 -18 1 C-17.01 1.99 -16.02 2.98 -15 4 C-14.76023437 3.35675781 -14.52046875 2.71351563 -14.2734375 2.05078125 C-13 0 -13 0 -10.9765625 -0.64453125 C-10.20054688 -0.69996094 -9.42453125 -0.75539063 -8.625 -0.8125 C-7.46871094 -0.91498047 -7.46871094 -0.91498047 -6.2890625 -1.01953125 C-4.01852779 -1.00015809 -2.16783507 -0.64837076 0 0 Z " fill="#514E53" transform="translate(118,324)"/>
<path d="M0 0 C6.875 1.875 6.875 1.875 8 3 C8.33 2.01 8.66 1.02 9 0 C9.66 0.33 10.32 0.66 11 1 C10.34 3.97 9.68 6.94 9 10 C7.68 10.33 6.36 10.66 5 11 C5 10.34 5 9.68 5 9 C3.68 8.67 2.36 8.34 1 8 C1 6.35 1 4.7 1 3 C0.34 3 -0.32 3 -1 3 C-0.67 2.01 -0.34 1.02 0 0 Z " fill="#DEDEDF" transform="translate(145,184)"/>
<path d="M0 0 C1.67542976 0.28604898 3.34385343 0.61781233 5 1 C5 2.65 5 4.3 5 6 C3.37828761 6.38897161 1.75245075 6.76078298 0.125 7.125 C-0.77992188 7.33382813 -1.68484375 7.54265625 -2.6171875 7.7578125 C-3.40351562 7.83773438 -4.18984375 7.91765625 -5 8 C-5.66 7.34 -6.32 6.68 -7 6 C-6.625 3.375 -6.625 3.375 -6 1 C-4.7934375 1.0309375 -4.7934375 1.0309375 -3.5625 1.0625 C-1.06645115 1.29633621 -1.06645115 1.29633621 0 0 Z " fill="#807E82" transform="translate(129,367)"/>
<path d="M0 0 C0.66 0 1.32 0 2 0 C2.33 0.66 2.66 1.32 3 2 C3.804375 1.979375 4.60875 1.95875 5.4375 1.9375 C8 2 8 2 9 3 C9.1875 5.9375 9.1875 5.9375 9 9 C7 11 7 11 3.875 11.125 C2.451875 11.063125 2.451875 11.063125 1 11 C0.67 7.37 0.34 3.74 0 0 Z " fill="#461F2A" transform="translate(121,135)"/>
<path d="M0 0 C2.475 0.99 2.475 0.99 5 2 C5 2.66 5 3.32 5 4 C11.93 3.34 18.86 2.68 26 2 C26 2.66 26 3.32 26 4 C26.66 4.33 27.32 4.66 28 5 C21.07 4.505 21.07 4.505 14 4 C13.34 5.98 12.68 7.96 12 10 C10.68 9.67 9.36 9.34 8 9 C8 8.34 8 7.68 8 7 C7.4225 6.938125 6.845 6.87625 6.25 6.8125 C3.09559388 5.6734089 1.88882399 3.69831998 0 1 C0 0.67 0 0.34 0 0 Z " fill="#868487" transform="translate(80,453)"/>
<path d="M0 0 C0.33 0 0.66 0 1 0 C2.10228696 4.40914783 2.07654536 8.48382401 2 13 C1.01 13.33 0.02 13.66 -1 14 C-2.66710346 15.49985609 -2.66710346 15.49985609 -4 17 C-4.99 16.67 -5.98 16.34 -7 16 C-7.04241723 13.66705225 -7.04092937 11.33297433 -7 9 C-6 8 -6 8 -2.9375 7.9375 C-1.4834375 7.9684375 -1.4834375 7.9684375 0 8 C0 5.36 0 2.72 0 0 Z " fill="#3B393D" transform="translate(62,274)"/>
<path d="M0 0 C0.66 0.33 1.32 0.66 2 1 C1.773125 1.928125 1.54625 2.85625 1.3125 3.8125 C1.1578125 5.3903125 1.1578125 5.3903125 1 7 C2.35444301 8.77190909 2.35444301 8.77190909 4 10 C4 10.66 4 11.32 4 12 C1 12 1 12 -1.1875 10 C-1.785625 9.34 -2.38375 8.68 -3 8 C-3 9.65 -3 11.3 -3 13 C-3.66 13 -4.32 13 -5 13 C-5.66 9.04 -6.32 5.08 -7 1 C-6.01 1 -5.02 1 -4 1 C-3.67 1.99 -3.34 2.98 -3 4 C-2.01 2.68 -1.02 1.36 0 0 Z " fill="#4C2833" transform="translate(72,141)"/>
<path d="M0 0 C0.99 0 1.98 0 3 0 C3.33 0.66 3.66 1.32 4 2 C4.33 1.34 4.66 0.68 5 0 C5.66 0 6.32 0 7 0 C7 2.64 7 5.28 7 8 C6.01 8.33 5.02 8.66 4 9 C3.67 8.34 3.34 7.68 3 7 C2.67 7.66 2.34 8.32 2 9 C0.68 8.67 -0.64 8.34 -2 8 C-2.66 5.69 -3.32 3.38 -4 1 C-3.01 1.33 -2.02 1.66 -1 2 C-0.67 1.34 -0.34 0.68 0 0 Z " fill="#72545C" transform="translate(99,140)"/>
<path d="M0 0 C0 1.98 0 3.96 0 6 C-0.28875 5.360625 -0.5775 4.72125 -0.875 4.0625 C-1.82823451 1.84793921 -1.82823451 1.84793921 -4 1 C-4 2.65 -4 4.3 -4 6 C-5.32 4.68 -6.64 3.36 -8 2 C-8 3.65 -8 5.3 -8 7 C-10.73247348 8.36623674 -12.98198902 8.128426 -16 8 C-17 7 -17 7 -17.0625 4.4375 C-17.041875 3.633125 -17.02125 2.82875 -17 2 C-16.34 2 -15.68 2 -15 2 C-15 3.65 -15 5.3 -15 7 C-14.34 7 -13.68 7 -13 7 C-13 5.02 -13 3.04 -13 1 C-8.59085217 -0.10228696 -4.51617599 -0.07654536 0 0 Z " fill="#6A686C" transform="translate(156,287)"/>
<path d="M0 0 C4.55555556 0.55555556 4.55555556 0.55555556 6 2 C6.125 5 6.125 5 6 8 C5 9 5 9 1.9375 9.0625 C0.968125 9.041875 -0.00125 9.02125 -1 9 C-1.625 5.625 -1.625 5.625 -2 2 C-1.34 1.34 -0.68 0.68 0 0 Z " fill="#4B2832" transform="translate(88,141)"/>
<path d="M0 0 C1.875 0.6875 1.875 0.6875 2.875 1.6875 C3 4.6875 3 4.6875 2.875 7.6875 C1.875 8.6875 1.875 8.6875 -0.5625 8.875 C-3.125 8.6875 -3.125 8.6875 -5.125 6.6875 C-5.4375 4.1875 -5.4375 4.1875 -5.125 1.6875 C-2.125 -0.3125 -2.125 -0.3125 0 0 Z " fill="#52313C" transform="translate(136.125,135.3125)"/>
<path d="M0 0 C0.66 0.33 1.32 0.66 2 1 C2.1875 3.375 2.1875 3.375 2 6 C-0.90092502 7.93395001 -1.89674737 8.30131941 -5.1875 8.625 C-6.445625 8.74875 -7.70375 8.8725 -9 9 C-9.33 10.65 -9.66 12.3 -10 14 C-13.63 14 -17.26 14 -21 14 C-20.67 13.01 -20.34 12.02 -20 11 C-17.03 11 -14.06 11 -11 11 C-11 9.68 -11 8.36 -11 7 C-7.7 6.67 -4.4 6.34 -1 6 C-0.67 4.02 -0.34 2.04 0 0 Z " fill="#68666A" transform="translate(348,413)"/>
<path d="M0 0 C3.465 1.485 3.465 1.485 7 3 C7.66 2.34 8.32 1.68 9 1 C11.125 1.375 11.125 1.375 13 2 C13 2.99 13 3.98 13 5 C12.01 5.495 12.01 5.495 11 6 C11.66 6.33 12.32 6.66 13 7 C7.25 9 7.25 9 5 9 C5 7.35 5 5.7 5 4 C4.01 4 3.02 4 2 4 C2 5.65 2 7.3 2 9 C1.67 9 1.34 9 1 9 C0.67 6.03 0.34 3.06 0 0 Z " fill="#6F6D72" transform="translate(155,361)"/>
<path d="M0 0 C0.66 0.33 1.32 0.66 2 1 C0.20963542 1.94401042 -1.58072917 2.88802083 -3.37109375 3.83203125 C-5.32267987 4.99019799 -5.32267987 4.99019799 -6 8 C-13.92 8.495 -13.92 8.495 -22 9 C-22 8.34 -22 7.68 -22 7 C-18.7 7 -15.4 7 -12 7 C-11.34 5.68 -10.68 4.36 -10 3 C-6.5625 1.8125 -6.5625 1.8125 -3 1 C-2.01 0.67 -1.02 0.34 0 0 Z " fill="#939295" transform="translate(320,428)"/>
<path d="M0 0 C0.33 0 0.66 0 1 0 C1.13277344 0.92683594 1.26554687 1.85367187 1.40234375 2.80859375 C1.57894531 4.00613281 1.75554688 5.20367187 1.9375 6.4375 C2.11152344 7.63246094 2.28554688 8.82742188 2.46484375 10.05859375 C2.68985213 12.87955676 2.68985213 12.87955676 4 14 C4.21145071 16.07926529 4.36904772 18.1641172 4.5 20.25 C4.75391469 24.25822468 5.11567191 28.07947882 6 32 C-1.18810191 24.48516618 -0.18169645 9.67028881 0 0 Z " fill="#9F9EA1" transform="translate(51,342)"/>
<path d="M0 0 C0 0.66 0 1.32 0 2 C0.66 2.33 1.32 2.66 2 3 C-0.66666667 2.33333333 -3.33333333 1.66666667 -6 1 C-6.33 1.99 -6.66 2.98 -7 4 C-12.28 4.66 -17.56 5.32 -23 6 C-16.26200214 0.9465016 -8.39784404 -2.09946101 0 0 Z " fill="#A09FA1" transform="translate(277,437)"/>
<path d="M0 0 C1.33332095 2.6666419 0.67102033 4.16680303 0 7 C-2.64 7.33 -5.28 7.66 -8 8 C-9.125 3.25 -9.125 3.25 -8 1 C-6.8553125 1.309375 -6.8553125 1.309375 -5.6875 1.625 C-2.78114056 2.33391203 -2.78114056 2.33391203 0 0 Z " fill="#6E6B70" transform="translate(139,343)"/>
<path d="M0 0 C0.99 0.33 1.98 0.66 3 1 C3 3.64 3 6.28 3 9 C1.71254964 9.38922918 0.41980403 9.76098036 -0.875 10.125 C-1.95394531 10.43824219 -1.95394531 10.43824219 -3.0546875 10.7578125 C-3.69664063 10.83773437 -4.33859375 10.91765625 -5 11 C-5.66 10.34 -6.32 9.68 -7 9 C-6.67 8.01 -6.34 7.02 -6 6 C-5.67 6.66 -5.34 7.32 -5 8 C-4.01 8.33 -3.02 8.66 -2 9 C-2.309375 7.8553125 -2.309375 7.8553125 -2.625 6.6875 C-3 4 -3 4 -1 1 C-0.67 0.67 -0.34 0.34 0 0 Z " fill="#747276" transform="translate(124,242)"/>
<path d="M0 0 C2.625 0.375 2.625 0.375 5 1 C5.33 2.32 5.66 3.64 6 5 C5.01 5.495 5.01 5.495 4 6 C4.66 6 5.32 6 6 6 C5.67 6.99 5.34 7.98 5 9 C2.625 9.125 2.625 9.125 0 9 C-2 7 -2 7 -2.25 4.5 C-2 2 -2 2 0 0 Z " fill="#5F3E47" transform="translate(214,124)"/>
<path d="M0 0 C0 1.98 0 3.96 0 6 C-1.32 6.33 -2.64 6.66 -4 7 C-4 5.35 -4 3.7 -4 2 C-4.66 2 -5.32 2 -6 2 C-6 3.65 -6 5.3 -6 7 C-6.66 7 -7.32 7 -8 7 C-8 5.35 -8 3.7 -8 2 C-8.66 2 -9.32 2 -10 2 C-10 3.98 -10 5.96 -10 8 C-10.66 8 -11.32 8 -12 8 C-12 5.69 -12 3.38 -12 1 C-7.924588 0.259016 -4.1434382 0 0 0 Z " fill="#666468" transform="translate(197,281)"/>
<path d="M0 0 C2.31 0 4.62 0 7 0 C6.979375 0.928125 6.95875 1.85625 6.9375 2.8125 C6.84230396 6.02286011 6.84230396 6.02286011 8 9 C7.01 8.67 6.02 8.34 5 8 C5 7.34 5 6.68 5 6 C4.34 6 3.68 6 3 6 C3 7.32 3 8.64 3 10 C2.34 10 1.68 10 1 10 C0.67 6.7 0.34 3.4 0 0 Z " fill="#6C6B6F" transform="translate(81,248)"/>
<path d="M0 0 C4.875 0.875 4.875 0.875 6 2 C6.04092937 4.33297433 6.04241723 6.66705225 6 9 C3.69 9 1.38 9 -1 9 C-1.33 7.68 -1.66 6.36 -2 5 C-0.35 4.67 1.3 4.34 3 4 C3 3.34 3 2.68 3 2 C1.68 2.33 0.36 2.66 -1 3 C-0.67 2.01 -0.34 1.02 0 0 Z " fill="#5D3B45" transform="translate(114,138)"/>
<path d="M0 0 C1.65 0 3.3 0 5 0 C6.25664978 2.90600261 7 4.79604584 7 8 C4.69 8.33 2.38 8.66 0 9 C-0.33 7.68 -0.66 6.36 -1 5 C0.32 4.34 1.64 3.68 3 3 C1.68 3 0.36 3 -1 3 C-0.67 2.01 -0.34 1.02 0 0 Z " fill="#6B4E56" transform="translate(195,127)"/>
<path d="M0 0 C2.625 0.375 2.625 0.375 5 1 C5.33 2.32 5.66 3.64 6 5 C4.02 5 2.04 5 0 5 C0 5.66 0 6.32 0 7 C1.98 6.67 3.96 6.34 6 6 C6 6.66 6 7.32 6 8 C3.6739143 8.38063221 1.33944736 8.71269945 -1 9 C-2 8 -2 8 -2.1875 5.0625 C-2 2 -2 2 0 0 Z " fill="#4B2731" transform="translate(187,128)"/>
<path d="M0 0 C-2.44067797 6.71186441 -2.44067797 6.71186441 -5.0625 8.0625 C-7 8 -7 8 -9 6 C-8.9375 3.5 -8.9375 3.5 -8 1 C-4.72494404 -0.89608503 -3.64512471 -1.21504157 0 0 Z " fill="#ACABAD" transform="translate(123,189)"/>
<path d="M0 0 C0.33 0 0.66 0 1 0 C1.33 4.62 1.66 9.24 2 14 C1.34 13.67 0.68 13.34 0 13 C-2.00800456 13.28112064 -4.01014051 13.61067967 -6 14 C-6.33 12.35 -6.66 10.7 -7 9 C-4.69 9 -2.38 9 0 9 C0 6.03 0 3.06 0 0 Z " fill="#2A272B" transform="translate(73,350)"/>
<path d="M0 0 C1.2065625 0.0309375 1.2065625 0.0309375 2.4375 0.0625 C2.4375 3.0325 2.4375 6.0025 2.4375 9.0625 C1.1175 9.3925 -0.2025 9.7225 -1.5625 10.0625 C-1.8925 9.4025 -2.2225 8.7425 -2.5625 8.0625 C-1.2425 8.0625 0.0775 8.0625 1.4375 8.0625 C-1.0375 7.0725 -1.0375 7.0725 -3.5625 6.0625 C-3.605221 4.39638095 -3.60313832 2.72867115 -3.5625 1.0625 C-2.5625 0.0625 -2.5625 0.0625 0 0 Z " fill="#828184" transform="translate(142.5625,386.9375)"/>
<path d="M0 0 C1.32 0.33 2.64 0.66 4 1 C4.33 3.97 4.66 6.94 5 10 C3.68 10.33 2.36 10.66 1 11 C0 10 0 10 -0.09765625 7.71484375 C-0.08605469 6.79832031 -0.07445312 5.88179688 -0.0625 4.9375 C-0.05347656 4.01839844 -0.04445312 3.09929687 -0.03515625 2.15234375 C-0.02355469 1.44207031 -0.01195312 0.73179687 0 0 Z " fill="#191719" transform="translate(63,336)"/>
<path d="M0 0 C2.625 0.375 2.625 0.375 5 1 C5 1.66 5 2.32 5 3 C3.68 3 2.36 3 1 3 C3.475 3.99 3.475 3.99 6 5 C5.67 6.32 5.34 7.64 5 9 C3.35 9.33 1.7 9.66 0 10 C-0.33 9.01 -0.66 8.02 -1 7 C0.65 7.33 2.3 7.66 4 8 C4 7.34 4 6.68 4 6 C2.35 6 0.7 6 -1 6 C-1.625 4.125 -1.625 4.125 -2 2 C-1.34 1.34 -0.68 0.68 0 0 Z " fill="#593842" transform="translate(205,125)"/>
<path d="M0 0 C0.93650391 0.05285156 1.87300781 0.10570312 2.83789062 0.16015625 C3.81822266 0.22074219 4.79855469 0.28132813 5.80859375 0.34375 C7.74710933 0.46308233 9.68590889 0.57791663 11.625 0.6875 C12.91772827 0.76774414 12.91772827 0.76774414 14.23657227 0.84960938 C16.24496962 1.07988813 16.24496962 1.07988813 17.24609375 -0.15625 C19.57906808 -0.19717937 21.913146 -0.19866723 24.24609375 -0.15625 C24.24609375 0.17375 24.24609375 0.50375 24.24609375 0.84375 C18.4212776 2.84627888 13.19205981 3.14782905 7.05859375 3.09375 C6.16978516 3.10148437 5.28097656 3.10921875 4.36523438 3.1171875 C3.50736328 3.11460937 2.64949219 3.11203125 1.765625 3.109375 C0.99323486 3.10711914 0.22084473 3.10486328 -0.57495117 3.10253906 C-3.00391366 2.81405724 -4.64382825 2.05190838 -6.75390625 0.84375 C-4.25298112 -0.40671257 -2.78333796 -0.17254565 0 0 Z " fill="#676569" transform="translate(225.75390625,442.15625)"/>
<path d="M0 0 C0.33 0 0.66 0 1 0 C1.49304175 7.39562624 1.49304175 7.39562624 -0.9375 10.375 C-1.618125 10.91125 -2.29875 11.4475 -3 12 C-3.33 12.66 -3.66 13.32 -4 14 C-4.66 14 -5.32 14 -6 14 C-6 12.35 -6 10.7 -6 9 C-5.34 9 -4.68 9 -4 9 C-4 6.69 -4 4.38 -4 2 C-3.01 2.33 -2.02 2.66 -1 3 C-0.67 2.01 -0.34 1.02 0 0 Z " fill="#222022" transform="translate(80,398)"/>
<path d="M0 0 C2.125 0.375 2.125 0.375 4 1 C4.625 3.375 4.625 3.375 5 6 C4.34 6.66 3.68 7.32 3 8 C0.375 7.625 0.375 7.625 -2 7 C-2.125 4.625 -2.125 4.625 -2 2 C-1.34 1.34 -0.68 0.68 0 0 Z " fill="#807E82" transform="translate(134,320)"/>
<path d="M0 0 C1 1 1 1 1.0625 4.0625 C1.041875 5.031875 1.02125 6.00125 1 7 C0.71125 6.360625 0.4225 5.72125 0.125 5.0625 C-0.82823451 2.84793921 -0.82823451 2.84793921 -3 2 C-3 3.65 -3 5.3 -3 7 C-3.66 7 -4.32 7 -5 7 C-5 5.35 -5 3.7 -5 2 C-5.66 2 -6.32 2 -7 2 C-7 3.98 -7 5.96 -7 8 C-7.66 8 -8.32 8 -9 8 C-9 5.69 -9 3.38 -9 1 C-6.01787087 -0.49106457 -3.28390342 -0.11941467 0 0 Z " fill="#565459" transform="translate(149,319)"/>
<path d="M0 0 C0 1.98 0 3.96 0 6 C-0.66 6 -1.32 6 -2 6 C-2 4.35 -2 2.7 -2 1 C-2.66 1 -3.32 1 -4 1 C-4 2.98 -4 4.96 -4 7 C-4.66 7 -5.32 7 -6 7 C-6.33 5.35 -6.66 3.7 -7 2 C-7.33 2 -7.66 2 -8 2 C-8.33 3.65 -8.66 5.3 -9 7 C-9.33 7 -9.66 7 -10 7 C-10.33 4.69 -10.66 2.38 -11 0 C-3.57142857 -1.28571429 -3.57142857 -1.28571429 0 0 Z " fill="#58565A" transform="translate(108,248)"/>
<path d="M0 0 C1.18851563 0.00902344 2.37703125 0.01804687 3.6015625 0.02734375 C4.51679688 0.03894531 5.43203125 0.05054687 6.375 0.0625 C6.375 0.3925 6.375 0.7225 6.375 1.0625 C4.395 1.0625 2.415 1.0625 0.375 1.0625 C0.045 2.7125 -0.285 4.3625 -0.625 6.0625 C-1.615 6.0625 -2.605 6.0625 -3.625 6.0625 C-3.625 6.7225 -3.625 7.3825 -3.625 8.0625 C-4.285 8.0625 -4.945 8.0625 -5.625 8.0625 C-5.295 6.0825 -4.965 4.1025 -4.625 2.0625 C-5.945 1.7325 -7.265 1.4025 -8.625 1.0625 C-5.74084117 -0.37957941 -3.20778472 -0.03144887 0 0 Z " fill="#363436" transform="translate(199.625,78.9375)"/>
<path d="M0 0 C0.99 0 1.98 0 3 0 C3.33 3.3 3.66 6.6 4 10 C3.34 10 2.68 10 2 10 C1.67 8.35 1.34 6.7 1 5 C0.01 5 -0.98 5 -2 5 C-2 6.98 -2 8.96 -2 11 C-2.66 10.67 -3.32 10.34 -4 10 C-4 7.69 -4 5.38 -4 3 C-3.01 2.67 -2.02 2.34 -1 2 C-0.67 1.34 -0.34 0.68 0 0 Z " fill="#88878A" transform="translate(140,183)"/>
<path d="M0 0 C2.97 0 5.94 0 9 0 C9 0.33 9 0.66 9 1 C7.02 1 5.04 1 3 1 C2.67 1.99 2.34 2.98 2 4 C1.34 4 0.68 4 0 4 C0 4.66 0 5.32 0 6 C-5.94 6 -11.88 6 -18 6 C-18 5.67 -18 5.34 -18 5 C-15.9174133 4.80438131 -13.83388144 4.61880687 -11.75 4.4375 C-10.58984375 4.33308594 -9.4296875 4.22867187 -8.234375 4.12109375 C-5.48128523 4.01801913 -3.580018 4.13786527 -1 5 C-0.67 3.35 -0.34 1.7 0 0 Z " fill="#B2B1B3" transform="translate(340,422)"/>
<path d="M0 0 C0.66 0 1.32 0 2 0 C2 2.97 2 5.94 2 9 C0.35 9.33 -1.3 9.66 -3 10 C-3.33 8.02 -3.66 6.04 -4 4 C-2.68 3.67 -1.36 3.34 0 3 C0 2.01 0 1.02 0 0 Z " fill="#848386" transform="translate(139,363)"/>
<path d="M0 0 C1.2065625 0.0309375 1.2065625 0.0309375 2.4375 0.0625 C2.81883299 2.0539056 3.15075582 4.05529077 3.4375 6.0625 C2.4375 7.0625 2.4375 7.0625 -0.125 7.125 C-1.3315625 7.0940625 -1.3315625 7.0940625 -2.5625 7.0625 C-2.94383299 5.0710944 -3.27575582 3.06970923 -3.5625 1.0625 C-2.5625 0.0625 -2.5625 0.0625 0 0 Z " fill="#7C7A7D" transform="translate(83.5625,193.9375)"/>
<path d="M0 0 C3.69230769 0.69230769 3.69230769 0.69230769 5 2 C5.04063832 3.66617115 5.042721 5.33388095 5 7 C3.34385343 7.38218767 1.67542976 7.71395102 0 8 C-1 7 -1 7 -1.125 4 C-1 1 -1 1 0 0 Z " fill="#716F73" transform="translate(130,243)"/>
<path d="M0 0 C0.66 0 1.32 0 2 0 C2.33 2.64 2.66 5.28 3 8 C0.69 8.33 -1.62 8.66 -4 9 C-5.35439668 6.29120665 -5.06501451 3.99066732 -5 1 C-4.34 1 -3.68 1 -3 1 C-2.814375 2.2065625 -2.814375 2.2065625 -2.625 3.4375 C-2.41875 4.283125 -2.2125 5.12875 -2 6 C-1.34 6.33 -0.68 6.66 0 7 C0 4.69 0 2.38 0 0 Z " fill="#56353F" transform="translate(146,134)"/>
<path d="M0 0 C0.33 0 0.66 0 1 0 C1 3.3 1 6.6 1 10 C1.66 10 2.32 10 3 10 C4.53266582 13.06533164 4.10276471 16.26754272 4.0625 19.625 C4.05798828 20.33140625 4.05347656 21.0378125 4.04882812 21.765625 C4.03703875 23.51045275 4.01910324 25.255237 4 27 C3.67 27 3.34 27 3 27 C2.67 22.71 2.34 18.42 2 14 C1.01 13.67 0.02 13.34 -1 13 C-0.67 8.71 -0.34 4.42 0 0 Z " fill="#525053" transform="translate(321,167)"/>
<path d="M0 0 C2.31 0 4.62 0 7 0 C9 5.75 9 5.75 9 8 C8.34 8 7.68 8 7 8 C6.67 6.35 6.34 4.7 6 3 C5.01 2.67 4.02 2.34 3 2 C3 4.31 3 6.62 3 9 C2.34 9 1.68 9 1 9 C0.67 6.03 0.34 3.06 0 0 Z " fill="#4C2732" transform="translate(76,143)"/>
<path d="M0 0 C0.33 0 0.66 0 1 0 C1.33 2.64 1.66 5.28 2 8 C3.94999129 7.80528889 3.94999129 7.80528889 6 7 C7.28436734 5.0162233 7.28436734 5.0162233 8 3 C8.33 4.65 8.66 6.3 9 8 C5.59353476 11.0279691 4.9819505 11 0 11 C0 7.37 0 3.74 0 0 Z " fill="#4C2732" transform="translate(161,130)"/>
<path d="M0 0 C2 2 2 2 2.125 5.625 C2.08375 6.73875 2.0425 7.8525 2 9 C0.35 9 -1.3 9 -3 9 C-3.33 7.35 -3.66 5.7 -4 4 C-2.68 3.67 -1.36 3.34 0 3 C0 2.01 0 1.02 0 0 Z " fill="#7F7E81" transform="translate(153,262)"/>
<path d="M0 0 C1.32 0 2.64 0 4 0 C4 0.66 4 1.32 4 2 C2.68 2 1.36 2 0 2 C0 2.66 0 3.32 0 4 C1.65 4 3.3 4 5 4 C5.33 4.99 5.66 5.98 6 7 C4 9 4 9 1.375 9.125 C0.59125 9.08375 -0.1925 9.0425 -1 9 C-1 8.34 -1 7.68 -1 7 C0.98 7.495 0.98 7.495 3 8 C3 7.34 3 6.68 3 6 C1.35 5.67 -0.3 5.34 -2 5 C-1.125 1.125 -1.125 1.125 0 0 Z " fill="#4E2B35" transform="translate(178,129)"/>
<path d="M0 0 C0.99 0 1.98 0 3 0 C2.21681311 3.91593446 0.60820142 7.36406635 -1 11 C-1.99 10.67 -2.98 10.34 -4 10 C-4 8.68 -4 7.36 -4 6 C-4.30404678 4.32774271 -4.63128912 2.65919896 -5 1 C-4.01 1.99 -3.02 2.98 -2 4 C-1.34 2.68 -0.68 1.36 0 0 Z " fill="#656368" transform="translate(105,324)"/>
<path d="M0 0 C1.98 0 3.96 0 6 0 C6 0.66 6 1.32 6 2 C4.68 2.33 3.36 2.66 2 3 C4.475 3.99 4.475 3.99 7 5 C6.67 6.32 6.34 7.64 6 9 C4.35 9.33 2.7 9.66 1 10 C0.67 9.01 0.34 8.02 0 7 C2.475 7.495 2.475 7.495 5 8 C5 7.01 5 6.02 5 5 C3.35 5 1.7 5 0 5 C0 3.35 0 1.7 0 0 Z " fill="#4D4B4F" transform="translate(92,324)"/>
<path d="M0 0 C2 0.25 2 0.25 4 1 C4.33 1.99 4.66 2.98 5 4 C3.35 4 1.7 4 0 4 C0 4.66 0 5.32 0 6 C1.65 5.67 3.3 5.34 5 5 C5 5.66 5 6.32 5 7 C2.625 7.625 2.625 7.625 0 8 C-0.66 7.34 -1.32 6.68 -2 6 C-1.44444444 1.44444444 -1.44444444 1.44444444 0 0 Z " fill="#605D62" transform="translate(111,246)"/>
<path d="M0 0 C1.67542976 0.28604898 3.34385343 0.61781233 5 1 C5 1.99 5 2.98 5 4 C3.68 4 2.36 4 1 4 C1 4.66 1 5.32 1 6 C2.32 5.67 3.64 5.34 5 5 C4.67 5.99 4.34 6.98 4 8 C2.35 7.67 0.7 7.34 -1 7 C-1.04254356 5.00045254 -1.04080783 2.99958364 -1 1 C-0.67 0.67 -0.34 0.34 0 0 Z " fill="#58565A" transform="translate(180,180)"/>
<path d="M0 0 C0.66 0 1.32 0 2 0 C2 0.66 2 1.32 2 2 C2.66 2 3.32 2 4 2 C4 2.66 4 3.32 4 4 C3.34 4 2.68 4 2 4 C2.33 5.65 2.66 7.3 3 9 C3.66 9 4.32 9 5 9 C5 9.66 5 10.32 5 11 C3.68 11 2.36 11 1 11 C0.63890458 9.35567294 0.28629924 7.7094792 -0.0625 6.0625 C-0.25972656 5.14597656 -0.45695313 4.22945312 -0.66015625 3.28515625 C-0.77230469 2.53105469 -0.88445312 1.77695313 -1 1 C-0.67 0.67 -0.34 0.34 0 0 Z " fill="#5E3C46" transform="translate(151,131)"/>
<path d="M0 0 C2.125 0.375 2.125 0.375 4 1 C4 2.65 4 4.3 4 6 C2.35 6.33 0.7 6.66 -1 7 C-1.625 4.625 -1.625 4.625 -2 2 C-1.34 1.34 -0.68 0.68 0 0 Z " fill="#89878B" transform="translate(127,389)"/>
<path d="M0 0 C1.65 0.33 3.3 0.66 5 1 C5 2.98 5 4.96 5 7 C3.35 7.33 1.7 7.66 0 8 C-0.33 6.68 -0.66 5.36 -1 4 C0.32 3.67 1.64 3.34 3 3 C3 2.34 3 1.68 3 1 C1.68 1.33 0.36 1.66 -1 2 C-0.67 1.34 -0.34 0.68 0 0 Z " fill="#413F44" transform="translate(94,192)"/>
<path d="M0 0 C1.67542976 0.28604898 3.34385343 0.61781233 5 1 C5 5 5 5 4 7 C2.35 6.67 0.7 6.34 -1 6 C-1.042721 4.33388095 -1.04063832 2.66617115 -1 1 C-0.67 0.67 -0.34 0.34 0 0 Z " fill="#6F6E71" transform="translate(118,346)"/>
<path d="M0 0 C1.66611905 -0.042721 3.33382885 -0.04063832 5 0 C6 1 6 1 6.0625 3.5625 C6.041875 4.366875 6.02125 5.17125 6 6 C4.35 6.33 2.7 6.66 1 7 C0.67 4.69 0.34 2.38 0 0 Z " fill="#78767A" transform="translate(156,264)"/>
<path d="M0 0 C1.67542976 0.28604898 3.34385343 0.61781233 5 1 C5 1.99 5 2.98 5 4 C3.68 4 2.36 4 1 4 C1 4.66 1 5.32 1 6 C2.32 5.67 3.64 5.34 5 5 C5 5.66 5 6.32 5 7 C3.33388095 7.042721 1.66617115 7.04063832 0 7 C-1 6 -1 6 -1.125 3.5 C-1 1 -1 1 0 0 Z " fill="#59575B" transform="translate(91,249)"/>
<path d="M0 0 C0.66 0.33 1.32 0.66 2 1 C1.745504 2.48206495 1.47088238 3.96068615 1.1875 5.4375 C1.03667969 6.26121094 0.88585937 7.08492187 0.73046875 7.93359375 C0.48941406 8.61550781 0.24835938 9.29742187 0 10 C-0.99 10.33 -1.98 10.66 -3 11 C-3.144375 9.906875 -3.28875 8.81375 -3.4375 7.6875 C-3.88288104 4.06877013 -3.88288104 4.06877013 -5 1 C-3.02 1.99 -3.02 1.99 -1 3 C-0.67 2.01 -0.34 1.02 0 0 Z " fill="#5E5B60" transform="translate(154,184)"/>
<path d="M0 0 C2.475 0.495 2.475 0.495 5 1 C5 2.65 5 4.3 5 6 C3.35 6.33 1.7 6.66 0 7 C0 4.69 0 2.38 0 0 Z " fill="#EFC6D0" transform="translate(163,131)"/>
<path d="M0 0 C0.66 0.33 1.32 0.66 2 1 C2 3.31 2 5.62 2 8 C1.67 7.01 1.34 6.02 1 5 C-0.32 5 -1.64 5 -3 5 C-3 6.32 -3 7.64 -3 9 C-3.66 9 -4.32 9 -5 9 C-5 6.36 -5 3.72 -5 1 C-4.67 1.66 -4.34 2.32 -4 3 C-2.68 3 -1.36 3 0 3 C0 2.01 0 1.02 0 0 Z " fill="#605E63" transform="translate(119,367)"/>
<path d="M0 0 C1.67542976 0.28604898 3.34385343 0.61781233 5 1 C5 5 5 5 4 7 C2.68 7 1.36 7 0 7 C-0.38133299 5.0085944 -0.71325582 3.00720923 -1 1 C-0.67 0.67 -0.34 0.34 0 0 Z " fill="#6F6D71" transform="translate(140,266)"/>
<path d="M0 0 C0.99 0 1.98 0 3 0 C3.33 3.96 3.66 7.92 4 12 C3.34 12 2.68 12 2 12 C1.67 10.68 1.34 9.36 1 8 C0.01 8.495 0.01 8.495 -1 9 C-0.67 6.03 -0.34 3.06 0 0 Z " fill="#72515A" transform="translate(171,127)"/>
<path d="M0 0 C-0.99 0.33 -1.98 0.66 -3 1 C-3.33 1.66 -3.66 2.32 -4 3 C-4 2.34 -4 1.68 -4 1 C-4.53367188 1.144375 -5.06734375 1.28875 -5.6171875 1.4375 C-11.50228763 2.90368411 -16.95009776 3.22734497 -23 3 C-23 2.67 -23 2.34 -23 2 C-19.91879316 1.4660256 -16.83482141 0.95014449 -13.75 0.4375 C-12.44095703 0.21030273 -12.44095703 0.21030273 -11.10546875 -0.02148438 C-10.26113281 -0.16005859 -9.41679687 -0.29863281 -8.546875 -0.44140625 C-7.77182617 -0.57232666 -6.99677734 -0.70324707 -6.19824219 -0.83813477 C-3.88826153 -1.00822774 -2.19914787 -0.68559092 0 0 Z " fill="#585659" transform="translate(184,83)"/>
<path d="M0 0 C2.475 0.99 2.475 0.99 5 2 C5 2.99 5 3.98 5 5 C7.64 5.33 10.28 5.66 13 6 C12.67 7.32 12.34 8.64 12 10 C10.68 9.67 9.36 9.34 8 9 C8 8.34 8 7.68 8 7 C7.4225 6.938125 6.845 6.87625 6.25 6.8125 C3.09559388 5.6734089 1.88882399 3.69831998 0 1 C0 0.67 0 0.34 0 0 Z " fill="#B5B4B6" transform="translate(80,453)"/>
<path d="M0 0 C0 2.97 0 5.94 0 9 C-0.33 7.68 -0.66 6.36 -1 5 C-1.99 5 -2.98 5 -4 5 C-4 6.65 -4 8.3 -4 10 C-4.66 9.67 -5.32 9.34 -6 9 C-6.36521739 3.52173913 -6.36521739 3.52173913 -4.6875 1.125 C-3 0 -3 0 0 0 Z " fill="#9A989B" transform="translate(117,289)"/>
<path d="M0 0 C1.32 0 2.64 0 4 0 C4.33 1.32 4.66 2.64 5 4 C3.68 4 2.36 4 1 4 C1 4.66 1 5.32 1 6 C2.32 5.67 3.64 5.34 5 5 C4.67 5.66 4.34 6.32 4 7 C2.35 6.67 0.7 6.34 -1 6 C-1.042721 4.33388095 -1.04063832 2.66617115 -1 1 C-0.67 0.67 -0.34 0.34 0 0 Z " fill="#6A686D" transform="translate(162,285)"/>
<path d="M0 0 C0 0.66 0 1.32 0 2 C-0.99 2 -1.98 2 -3 2 C-2.67 4.64 -2.34 7.28 -2 10 C-2.66 10 -3.32 10 -4 10 C-5.35439668 7.29120665 -5.06501451 4.99066732 -5 2 C-5.99 1.67 -6.98 1.34 -8 1 C-5.29120665 -0.35439668 -2.99066732 -0.06501451 0 0 Z " fill="#626065" transform="translate(80,192)"/>
<path d="M0 0 C1.875 0.5625 1.875 0.5625 4 2 C4.69356423 4.32548007 5.36149212 6.65880445 6 9 C6.99 9.33 7.98 9.66 9 10 C9 10.66 9 11.32 9 12 C6.31533497 11.32883374 4.49474888 10.64175095 2.77734375 8.4140625 C1.04946167 5.4785209 0 3.44242349 0 0 Z " fill="#727074" transform="translate(71,441)"/>
<path d="M0 0 C0 0.66 0 1.32 0 2 C0.66 2.33 1.32 2.66 2 3 C0.73542969 3.09087891 0.73542969 3.09087891 -0.5546875 3.18359375 C-1.65039062 3.26738281 -2.74609375 3.35117187 -3.875 3.4375 C-4.96554687 3.51871094 -6.05609375 3.59992188 -7.1796875 3.68359375 C-9.94728971 3.83001703 -9.94728971 3.83001703 -12 5 C-11 2 -11 2 -8.8125 0.8125 C-5.74609689 -0.07334979 -3.17561845 -0.14770318 0 0 Z " fill="#7C7B7E" transform="translate(296,432)"/>
<path d="M0 0 C1.67542976 0.28604898 3.34385343 0.61781233 5 1 C5 3.62113708 4.68707555 5.50935112 4 8 C2.68 8 1.36 8 0 8 C0.33 7.34 0.66 6.68 1 6 C0.67 5.67 0.34 5.34 0 5 C-0.625 3 -0.625 3 -1 1 C-0.67 0.67 -0.34 0.34 0 0 Z " fill="#59565B" transform="translate(137,242)"/>
<path d="M0 0 C0.33 0.66 0.66 1.32 1 2 C1.66 2 2.32 2 3 2 C4.35439668 4.70879335 4.06501451 7.00933268 4 10 C2.35 8.68 0.7 7.36 -1 6 C-0.67 4.02 -0.34 2.04 0 0 Z " fill="#ECC4CE" transform="translate(73,142)"/>
<path d="M0 0 C0.33 0.66 0.66 1.32 1 2 C-0.32 2.33 -1.64 2.66 -3 3 C-3.33 5.31 -3.66 7.62 -4 10 C-4.66 10 -5.32 10 -6 10 C-6.33 9.01 -6.66 8.02 -7 7 C-7.66 6.67 -8.32 6.34 -9 6 C-9 5.34 -9 4.68 -9 4 C-8.01 4 -7.02 4 -6 4 C-6 3.34 -6 2.68 -6 2 C-4.02 1.34 -2.04 0.68 0 0 Z " fill="#9D9B9E" transform="translate(40,104)"/>
<path d="M0 0 C2.0625 0.4375 2.0625 0.4375 4 1 C3.67 2.65 3.34 4.3 3 6 C2.01 6.33 1.02 6.66 0 7 C-0.38133299 5.0085944 -0.71325582 3.00720923 -1 1 C-0.67 0.67 -0.34 0.34 0 0 Z " fill="#434147" transform="translate(69,372)"/>
<path d="M0 0 C0.99 0.33 1.98 0.66 3 1 C2.67 2.32 2.34 3.64 2 5 C5.0745356 4.2236068 5.0745356 4.2236068 7 2 C6.67 3.65 6.34 5.3 6 7 C5.01 7 4.02 7 3 7 C3 7.66 3 8.32 3 9 C2.34 9 1.68 9 1 9 C0.67 6.03 0.34 3.06 0 0 Z " fill="#514E53" transform="translate(119,323)"/>
<path d="M0 0 C2.475 0.99 2.475 0.99 5 2 C5.33 4.31 5.66 6.62 6 9 C5.01 8.34 4.02 7.68 3 7 C2.34 7.66 1.68 8.32 1 9 C-0.4783226 6.04335481 -0.06032783 3.25770263 0 0 Z " fill="#68666A" transform="translate(125,288)"/>
<path d="M0 0 C1.66666667 0 3.33333333 0 5 0 C5 0.99 5 1.98 5 3 C4.01 3.495 4.01 3.495 3 4 C3.66 4.33 4.32 4.66 5 5 C5 5.66 5 6.32 5 7 C3.35 6.67 1.7 6.34 0 6 C-0.38218767 4.34385343 -0.71395102 2.67542976 -1 1 C-0.67 0.67 -0.34 0.34 0 0 Z " fill="#504E52" transform="translate(165,183)"/>
<path d="M0 0 C2.0625 0.4375 2.0625 0.4375 4 1 C4 1.99 4 2.98 4 4 C3.01 4.495 3.01 4.495 2 5 C2.66 5.33 3.32 5.66 4 6 C2.35 6.33 0.7 6.66 -1 7 C-1.04254356 5.00045254 -1.04080783 2.99958364 -1 1 C-0.67 0.67 -0.34 0.34 0 0 Z " fill="#69676B" transform="translate(164,362)"/>
<path d="M0 0 C1.65 0 3.3 0 5 0 C4.67 0.66 4.34 1.32 4 2 C3.34 2 2.68 2 2 2 C2 2.66 2 3.32 2 4 C2.99 4.33 3.98 4.66 5 5 C4.01 5 3.02 5 2 5 C2 5.99 2 6.98 2 8 C3.32 8.33 4.64 8.66 6 9 C4.35 9 2.7 9 1 9 C0.67 6.03 0.34 3.06 0 0 Z " fill="#59575B" transform="translate(99,269)"/>
<path d="M0 0 C1.98 0 3.96 0 6 0 C6.33 0.99 6.66 1.98 7 3 C6.01 4.485 6.01 4.485 5 6 C4.01 6 3.02 6 2 6 C2 4.68 2 3.36 2 2 C1.34 1.34 0.68 0.68 0 0 Z " fill="#ABAAAC" transform="translate(119,322)"/>
<path d="M0 0 C2.125 0.375 2.125 0.375 4 1 C4 1.99 4 2.98 4 4 C3.34 4 2.68 4 2 4 C2 3.34 2 2.68 2 2 C1.34 2 0.68 2 0 2 C0 3.32 0 4.64 0 6 C1.32 5.67 2.64 5.34 4 5 C4 5.66 4 6.32 4 7 C2.35 7 0.7 7 -1 7 C-1.625 4.625 -1.625 4.625 -2 2 C-1.34 1.34 -0.68 0.68 0 0 Z " fill="#636166" transform="translate(114,269)"/>
<path d="M0 0 C1.32 0 2.64 0 4 0 C3.67 0.66 3.34 1.32 3 2 C2.34 1.67 1.68 1.34 1 1 C1 1.66 1 2.32 1 3 C2.32 3.33 3.64 3.66 5 4 C4.67 5.32 4.34 6.64 4 8 C2.68 7.67 1.36 7.34 0 7 C0.99 6.67 1.98 6.34 3 6 C3 5.34 3 4.68 3 4 C1.68 4 0.36 4 -1 4 C-0.67 2.68 -0.34 1.36 0 0 Z " fill="#4C494E" transform="translate(108,190)"/>
<path d="M0 0 C0.66 0.33 1.32 0.66 2 1 C0.70990357 1.50403768 -0.58213789 2.00309926 -1.875 2.5 C-2.59429687 2.7784375 -3.31359375 3.056875 -4.0546875 3.34375 C-6 4 -6 4 -8 4 C-8 4.66 -8 5.32 -8 6 C-9.32 6.33 -10.64 6.66 -12 7 C-11.4375 5.125 -11.4375 5.125 -10 3 C-6.5625 1.8125 -6.5625 1.8125 -3 1 C-2.01 0.67 -1.02 0.34 0 0 Z " fill="#706D71" transform="translate(320,428)"/>
<path d="M0 0 C0.99 0 1.98 0 3 0 C2.67 6.27 2.34 12.54 2 19 C1.67 19 1.34 19 1 19 C-0.15316726 12.65758005 -0.09507063 6.43311296 0 0 Z " fill="#242224" transform="translate(348,393)"/>
<path d="M0 0 C1.98 0.66 3.96 1.32 6 2 C6 3.98 6 5.96 6 8 C5.71125 7.360625 5.4225 6.72125 5.125 6.0625 C4.17176549 3.84793921 4.17176549 3.84793921 2 3 C2 4.65 2 6.3 2 8 C0.23537317 4.91190305 0 3.76687864 0 0 Z " fill="#646166" transform="translate(146,385)"/>
<path d="M0 0 C0.33 2.31 0.66 4.62 1 7 C-0.65 7.33 -2.3 7.66 -4 8 C-3.979375 7.21625 -3.95875 6.4325 -3.9375 5.625 C-3.81315937 3.01885039 -3.81315937 3.01885039 -5 1 C-1.125 0 -1.125 0 0 0 Z " fill="#6E6C70" transform="translate(111,270)"/>
<path d="M0 0 C0.33 0.66 0.66 1.32 1 2 C1.99 2 2.98 2 4 2 C4.33 1.34 4.66 0.68 5 0 C5 0.99 5 1.98 5 3 C3.68 3 2.36 3 1 3 C1 3.66 1 4.32 1 5 C2.65 4.67 4.3 4.34 6 4 C5.01 5.485 5.01 5.485 4 7 C2.68 6.67 1.36 6.34 0 6 C-0.38218767 4.34385343 -0.71395102 2.67542976 -1 1 C-0.67 0.67 -0.34 0.34 0 0 Z " fill="#4C4A4F" transform="translate(115,190)"/>
<path d="M0 0 C0.33 0.66 0.66 1.32 1 2 C1.99 2.66 2.98 3.32 4 4 C2.35 4.33 0.7 4.66 -1 5 C-1 4.34 -1 3.68 -1 3 C-3.64 2.67 -6.28 2.34 -9 2 C-9 1.67 -9 1.34 -9 1 C-5.846632 0.29925156 -3.27275026 0 0 0 Z " fill="#B0AFB1" transform="translate(287,72)"/>
<path d="M0 0 C1.33332095 2.6666419 0.67102033 4.16680303 0 7 C-2.31 7 -4.62 7 -7 7 C-7 6.34 -7 5.68 -7 5 C-5.68 5 -4.36 5 -3 5 C-2.814375 4.0409375 -2.814375 4.0409375 -2.625 3.0625 C-2.41875 2.381875 -2.2125 1.70125 -2 1 C-1.34 0.67 -0.68 0.34 0 0 Z " fill="#9A989B" transform="translate(139,343)"/>
<path d="M0 0 C1.32 0.33 2.64 0.66 4 1 C3.01 1 2.02 1 1 1 C1 1.66 1 2.32 1 3 C2.32 3 3.64 3 5 3 C5 3.66 5 4.32 5 5 C4.01 5 3.02 5 2 5 C2 6.32 2 7.64 2 9 C1.34 9 0.68 9 0 9 C0 6.03 0 3.06 0 0 Z " fill="#615F64" transform="translate(111,345)"/>
<path d="M0 0 C0.33 0.66 0.66 1.32 1 2 C1.66 2 2.32 2 3 2 C2.67 6.62 2.34 11.24 2 16 C1.67 16 1.34 16 1 16 C0.67 10.72 0.34 5.44 0 0 Z " fill="#535154" transform="translate(44,295)"/>
<path d="M0 0 C1.485 0.99 1.485 0.99 3 2 C3.66 1.67 4.32 1.34 5 1 C4.979375 1.78375 4.95875 2.5675 4.9375 3.375 C4.81315937 5.98114961 4.81315937 5.98114961 6 8 C4.68 8 3.36 8 2 8 C-0.1519437 4.77208445 -0.20086443 3.71599191 0 0 Z " fill="#58565A" transform="translate(201,278)"/>
<path d="M0 0 C0.66 0 1.32 0 2 0 C2 2.64 2 5.28 2 8 C1.01 8.33 0.02 8.66 -1 9 C-1.80967438 6.08517222 -2.21845993 4.53886783 -1.0625 1.6875 C-0.711875 1.130625 -0.36125 0.57375 0 0 Z " fill="#4C2C36" transform="translate(104,140)"/>
<path d="M0 0 C0 0.33 0 0.66 0 1 C-1.670625 1.4021875 -1.670625 1.4021875 -3.375 1.8125 C-7.21840951 2.65809019 -7.21840951 2.65809019 -9 6 C-11.625 6.1875 -11.625 6.1875 -14 6 C-9.38622597 1.15553727 -6.93694521 -0.40020838 0 0 Z " fill="#2E2B30" transform="translate(317,429)"/>
<path d="M0 0 C1.98 0 3.96 0 6 0 C6.625 1.8125 6.625 1.8125 7 4 C6.01 5.485 6.01 5.485 5 7 C4.67 6.01 4.34 5.02 4 4 C1.49552484 2.78130071 1.49552484 2.78130071 -1 2 C-0.67 1.34 -0.34 0.68 0 0 Z " fill="#DEDDDE" transform="translate(94,325)"/>
<path d="M0 0 C0.66 0 1.32 0 2 0 C3.18771723 3.42943519 2.80226223 5.37784675 1.5625 8.75 C1.27503906 9.54921875 0.98757812 10.3484375 0.69140625 11.171875 C0.46324219 11.77515625 0.23507813 12.3784375 0 13 C-0.99 12.67 -1.98 12.34 -3 12 C-2.34 12 -1.68 12 -1 12 C-0.67 8.04 -0.34 4.08 0 0 Z " fill="#262327" transform="translate(61,306)"/>
<path d="M0 0 C2.475 0.495 2.475 0.495 5 1 C5.33 2.32 5.66 3.64 6 5 C3.03 4.505 3.03 4.505 0 4 C0 2.68 0 1.36 0 0 Z " fill="#72545C" transform="translate(187,128)"/>
<path d="M0 0 C1.65 0 3.3 0 5 0 C6.25664978 2.90600261 7 4.79604584 7 8 C6.34 8 5.68 8 5 8 C5 6.02 5 4.04 5 2 C3.02 2.33 1.04 2.66 -1 3 C-0.67 2.01 -0.34 1.02 0 0 Z " fill="#48232E" transform="translate(195,127)"/>
<path d="M0 0 C0.33 0 0.66 0 1 0 C1 2.97 1 5.94 1 9 C1.66 9 2.32 9 3 9 C3 10.65 3 12.3 3 14 C2.34 14 1.68 14 1 14 C-0.38226016 11.23547967 -0.09525387 8.9538637 -0.0625 5.875 C-0.05347656 4.77929688 -0.04445312 3.68359375 -0.03515625 2.5546875 C-0.02355469 1.71164062 -0.01195312 0.86859375 0 0 Z " fill="#A0A0A2" transform="translate(58,392)"/>
<path d="M0 0 C1.32 0 2.64 0 4 0 C3.67 0.66 3.34 1.32 3 2 C2.34 2 1.68 2 1 2 C0.67 2.99 0.34 3.98 0 5 C1.65 4.67 3.3 4.34 5 4 C4.67 4.99 4.34 5.98 4 7 C2.35 6.67 0.7 6.34 -1 6 C-1.042721 4.33388095 -1.04063832 2.66617115 -1 1 C-0.67 0.67 -0.34 0.34 0 0 Z " fill="#676469" transform="translate(150,364)"/>
<path d="M0 0 C0.33 0 0.66 0 1 0 C1.33 4.62 1.66 9.24 2 14 C1.01 13.67 0.02 13.34 -1 13 C-0.67 8.71 -0.34 4.42 0 0 Z " fill="#39373A" transform="translate(73,350)"/>
<path d="M0 0 C0.99 0.33 1.98 0.66 3 1 C3.33 3.64 3.66 6.28 4 9 C3.01 8.67 2.02 8.34 1 8 C1 6.35 1 4.7 1 3 C0.34 2.67 -0.32 2.34 -1 2 C-0.67 1.34 -0.34 0.68 0 0 Z " fill="#5C595D" transform="translate(127,320)"/>
<path d="M0 0 C1.65 0 3.3 0 5 0 C5 1.32 5 2.64 5 4 C3.35 4.33 1.7 4.66 0 5 C0 3.35 0 1.7 0 0 Z " fill="#625F63" transform="translate(56,284)"/>
<path d="M0 0 C2.97 0 5.94 0 9 0 C9 0.33 9 0.66 9 1 C7.02 1 5.04 1 3 1 C2.67 1.99 2.34 2.98 2 4 C1.34 4 0.68 4 0 4 C0 4.66 0 5.32 0 6 C-0.66 5.67 -1.32 5.34 -2 5 C-1.34 3.35 -0.68 1.7 0 0 Z " fill="#D1D0D1" transform="translate(340,422)"/>
<path d="M0 0 C0.66 0 1.32 0 2 0 C3.4783226 2.95664519 3.06032783 5.74229737 3 9 C1.5 7.875 1.5 7.875 0 6 C-0.1875 2.8125 -0.1875 2.8125 0 0 Z " fill="#322F36" transform="translate(63,336)"/>
<path d="M0 0 C0.66 0 1.32 0 2 0 C2.144375 1.11375 2.28875 2.2275 2.4375 3.375 C2.78372035 6.82142047 2.78372035 6.82142047 4 9 C3.01 9 2.02 9 1 9 C-1.125 2.25 -1.125 2.25 0 0 Z " fill="#58565A" transform="translate(88,191)"/>
<path d="M0 0 C0.66 0 1.32 0 2 0 C2.33 3.3 2.66 6.6 3 10 C2.34 10 1.68 10 1 10 C0.67 6.7 0.34 3.4 0 0 Z " fill="#68676B" transform="translate(100,189)"/>
<path d="M0 0 C0.99 0.33 1.98 0.66 3 1 C3 2.65 3 4.3 3 6 C1.68 5.67 0.36 5.34 -1 5 C-0.67 3.35 -0.34 1.7 0 0 Z " fill="#DDB7C1" transform="translate(89,143)"/>
<path d="M0 0 C0.33 0 0.66 0 1 0 C1.06058594 0.66386719 1.12117188 1.32773437 1.18359375 2.01171875 C1.79863507 8.54908081 1.79863507 8.54908081 3 15 C2.01 14.34 1.02 13.68 0 13 C-0.29296875 9.9609375 -0.29296875 9.9609375 -0.1875 6.375 C-0.16042969 5.18648438 -0.13335937 3.99796875 -0.10546875 2.7734375 C-0.07066406 1.85820312 -0.03585938 0.94296875 0 0 Z " fill="#BBBABC" transform="translate(47,327)"/>
<path d="M0 0 C1.32 0 2.64 0 4 0 C4 1.65 4 3.3 4 5 C2.68 5 1.36 5 0 5 C0 3.35 0 1.7 0 0 Z " fill="#F2F1F2" transform="translate(104,293)"/>
<path d="M0 0 C2.475 0.495 2.475 0.495 5 1 C5.33 2.32 5.66 3.64 6 5 C4.68 5.33 3.36 5.66 2 6 C1.34 4.02 0.68 2.04 0 0 Z " fill="#3B393C" transform="translate(302,87)"/>
<path d="M0 0 C0.66 0.33 1.32 0.66 2 1 C2 2.65 2 4.3 2 6 C-0.31 6.33 -2.62 6.66 -5 7 C-3.68 6.67 -2.36 6.34 -1 6 C-0.67 4.02 -0.34 2.04 0 0 Z " fill="#535155" transform="translate(348,413)"/>
<path d="M0 0 C1.65 0 3.3 0 5 0 C5 0.99 5 1.98 5 3 C3.02 3.33 1.04 3.66 -1 4 C-0.67 2.68 -0.34 1.36 0 0 Z " fill="#DEDDDE" transform="translate(151,365)"/>
<path d="M0 0 C0.33 0 0.66 0 1 0 C0.67 2.31 0.34 4.62 0 7 C-0.66 7 -1.32 7 -2 7 C-2.66 5.02 -3.32 3.04 -4 1 C-3.01 1 -2.02 1 -1 1 C-0.67 0.67 -0.34 0.34 0 0 Z " fill="#646267" transform="translate(128,345)"/>
<path d="M0 0 C0.66 0 1.32 0 2 0 C2.125 5.75 2.125 5.75 1 8 C0.34 8 -0.32 8 -1 8 C-0.67 5.36 -0.34 2.72 0 0 Z " fill="#545155" transform="translate(59,308)"/>
<path d="M0 0 C1.32 0 2.64 0 4 0 C4 0.66 4 1.32 4 2 C3.34 2 2.68 2 2 2 C2 3.98 2 5.96 2 8 C1.34 7.67 0.68 7.34 0 7 C0 4.69 0 2.38 0 0 Z " fill="#656367" transform="translate(136,186)"/>
<path d="M0 0 C1.98 0.495 1.98 0.495 4 1 C4 2.65 4 4.3 4 6 C3.34 5.01 2.68 4.02 2 3 C1.67 4.65 1.34 6.3 1 8 C0.34 7.67 -0.32 7.34 -1 7 C-0.67 4.69 -0.34 2.38 0 0 Z " fill="#C9A6AE" transform="translate(79,145)"/>
<path d="M0 0 C0.66 0 1.32 0 2 0 C2.185625 1.7015625 2.185625 1.7015625 2.375 3.4375 C2.684375 5.2009375 2.684375 5.2009375 3 7 C3.66 7.33 4.32 7.66 5 8 C3.68 8 2.36 8 1 8 C-0.35439668 5.29120665 -0.06501451 2.99066732 0 0 Z " fill="#47222D" transform="translate(141,135)"/>
<path d="M0 0 C2.475 0.495 2.475 0.495 5 1 C5 1.99 5 2.98 5 4 C3.35 4 1.7 4 0 4 C0 2.68 0 1.36 0 0 Z " fill="#726F73" transform="translate(180,180)"/>
<path d="M0 0 C0.99 0.33 1.98 0.66 3 1 C3 2.32 3 3.64 3 5 C3.66 5 4.32 5 5 5 C5 5.99 5 6.98 5 8 C4.01 7.67 3.02 7.34 2 7 C0.8125 3.4375 0.8125 3.4375 0 0 Z " fill="#431B26" transform="translate(95,141)"/>
<path d="M0 0 C1.32 0 2.64 0 4 0 C3.67 1.65 3.34 3.3 3 5 C2.01 4.67 1.02 4.34 0 4 C0 2.68 0 1.36 0 0 Z " fill="#E3BEC7" transform="translate(124,139)"/>
<path d="M0 0 C0.99 0.33 1.98 0.66 3 1 C2.67 3.64 2.34 6.28 2 9 C0.68 8.67 -0.64 8.34 -2 8 C-1.01 8 -0.02 8 1 8 C0.67 5.36 0.34 2.72 0 0 Z " fill="#C7A5AE" transform="translate(148,134)"/>
<path d="M0 0 C1.32 0.33 2.64 0.66 4 1 C4 2.98 4 4.96 4 7 C3.34 7 2.68 7 2 7 C2 5.35 2 3.7 2 2 C1.34 2 0.68 2 0 2 C0 1.34 0 0.68 0 0 Z " fill="#5F5D61" transform="translate(114,323)"/>
<path d="M0 0 C0.66 0 1.32 0 2 0 C2 1.98 2 3.96 2 6 C0.68 6.33 -0.64 6.66 -2 7 C-1.34 4.69 -0.68 2.38 0 0 Z " fill="#89878A" transform="translate(195,281)"/>
<path d="M0 0 C0.33 0 0.66 0 1 0 C1 1.98 1 3.96 1 6 C-0.65 6.33 -2.3 6.66 -4 7 C-3.67 5.68 -3.34 4.36 -3 3 C-2.01 3 -1.02 3 0 3 C0 2.01 0 1.02 0 0 Z " fill="#726F73" transform="translate(98,193)"/>
<path d="M0 0 C0.99 0.33 1.98 0.66 3 1 C2.979375 1.78375 2.95875 2.5675 2.9375 3.375 C2.81315937 5.98114961 2.81315937 5.98114961 4 8 C3.01 8 2.02 8 1 8 C1 6.35 1 4.7 1 3 C0.34 3 -0.32 3 -1 3 C-0.67 2.01 -0.34 1.02 0 0 Z " fill="#464449" transform="translate(145,184)"/>
<path d="M0 0 C1.68762851 1.6454378 3.3540349 3.31288577 5 5 C5 5.33 5 5.66 5 6 C3.02 6 1.04 6 -1 6 C-0.67 4.02 -0.34 2.04 0 0 Z " fill="#593942" transform="translate(123,140)"/>
<path d="M0 0 C0.99 0 1.98 0 3 0 C3 1.98 3 3.96 3 6 C2.01 5.67 1.02 5.34 0 5 C0 3.35 0 1.7 0 0 Z " fill="#E7BFC9" transform="translate(134,137)"/>
<path d="M0 0 C2 3.75 2 3.75 2 6 C0.35 6.33 -1.3 6.66 -3 7 C-2.01 4.69 -1.02 2.38 0 0 Z " fill="#4E4D50" transform="translate(30,112)"/>
</svg>
