<?xml version="1.0" encoding="UTF-8"?>
<svg version="1.1" xmlns="http://www.w3.org/2000/svg" width="369" height="554">
<path d="M0 0 C121.77 0 243.54 0 369 0 C369 182.82 369 365.64 369 554 C247.23 554 125.46 554 0 554 C0 371.18 0 188.36 0 0 Z " fill="#FEFEFE" transform="translate(0,0)"/>
<path d="M0 0 C10.079187 0.56639389 19.93289494 1.96598121 29.875 3.625 C31.52456024 3.89650378 33.1741375 4.16790413 34.82373047 4.43920898 C46.35965692 6.3471554 57.87115962 8.38090771 69.37521362 10.47140503 C87.8738975 13.83217834 106.39841647 17.04264348 124.92385101 20.25193405 C127.40381504 20.68166306 129.88371055 21.11178531 132.36358643 21.54202271 C148.21454403 24.29159203 164.0667707 27.02712168 179.93891907 29.65214539 C189.18264406 31.18567618 198.40494257 32.83086887 207.625 34.5 C209.30865314 34.80358877 210.99232856 35.10705399 212.67602539 35.41040039 C217.45110578 36.27127336 222.2256558 37.13505453 227 38 C228.28729004 38.23315918 229.57458008 38.46631836 230.90087891 38.70654297 C236.93466415 39.80029831 242.9677826 40.8976311 249 42 C248.5987165 49.30612714 247.64878873 56.36814622 246.23388672 63.546875 C244.57915687 71.99142589 243.30341889 80.49542286 242 89 C228.49634449 87.257894 215.14929044 85.20497317 201.79182434 82.56329346 C187.28573407 79.70639852 172.73049575 77.28790388 158.125 75 C142.056737 72.47445874 126.01671659 69.83458896 110 67 C98.08889531 64.89545277 86.17604392 62.8010806 74.26171875 60.71484375 C73.4096818 60.5656354 72.55764484 60.41642704 71.67978859 60.26269722 C67.18555739 59.47569134 62.69129988 58.6888359 58.19702148 57.90209961 C53.59690224 57.09680051 48.99688269 56.29093343 44.39688396 55.48494625 C40.8150244 54.85746422 37.23308849 54.23041884 33.65113258 53.60348701 C31.95566763 53.30666002 30.26023099 53.00967123 28.56482506 52.71250725 C26.18872414 52.29607344 23.81253506 51.88014885 21.4362793 51.46459961 C20.32904526 51.27089232 20.32904526 51.27089232 19.19944286 51.07327175 C13.95642824 50.15908219 8.70800018 49.28219669 3.45344543 48.4365387 C-0.08672724 47.80663988 -3.52880974 46.93455122 -7 46 C-7.13141686 40.29883921 -6.69423009 35.02552102 -5.72265625 29.4140625 C-5.59185165 28.63106781 -5.46104706 27.84807312 -5.32627869 27.04135132 C-5.05108912 25.4022094 -4.77277615 23.76358901 -4.49145508 22.12548828 C-4.06030747 19.6122192 -3.63975849 17.09734197 -3.22070312 14.58203125 C-2.95113598 12.98427109 -2.68097507 11.38661098 -2.41015625 9.7890625 C-2.28407486 9.03702545 -2.15799347 8.2849884 -2.02809143 7.51016235 C-1.1161316 2.2322632 -1.1161316 2.2322632 0 0 Z " fill="#CBEAE6" transform="translate(82,130)"/>
<path d="M0 0 C4.55384615 -0.36923077 4.55384615 -0.36923077 6.8125 1.5 C7.204375 1.995 7.59625 2.49 8 3 C8.66 2.34 9.32 1.68 10 1 C12.45098556 1.39532025 14.63904279 2.21301426 17 3 C18.66621616 3.03874921 20.33394172 3.0450286 22 3 C22.33 4.32 22.66 5.64 23 7 C22.34 6.67 21.68 6.34 21 6 C20.01 6.33 19.02 6.66 18 7 C18.33 7.66 18.66 8.32 19 9 C20.32 9 21.64 9 23 9 C23 9.66 23 10.32 23 11 C20.125 11.125 20.125 11.125 17 11 C16.34 10.34 15.68 9.68 15 9 C14.21625 9.185625 13.4325 9.37125 12.625 9.5625 C10 10 10 10 7.6875 8.5625 C6.8521875 7.7890625 6.8521875 7.7890625 6 7 C5.67 7.33 5.34 7.66 5 8 C2.5 8.125 2.5 8.125 0 8 C-0.33 7.67 -0.66 7.34 -1 7 C-0.71269945 4.66055264 -0.38063221 2.3260857 0 0 Z " fill="#898A8D" transform="translate(154,227)"/>
<path d="M0 0 C3.71599191 -0.20086443 4.77208445 -0.1519437 8 2 C9.66821323 1.67449498 11.33499557 1.34153937 13 1 C13.66 1.66 14.32 2.32 15 3 C14.68134222 6.29279709 13.45484649 7.86535088 11 10 C11.99 10.99 12.98 11.98 14 13 C6 12 6 12 -2 11 C-2 10.01 -2 9.02 -2 8 C1.33333333 5 1.33333333 5 4 5 C4 3.68 4 2.36 4 1 C2.35 1.33 0.7 1.66 -1 2 C-0.67 1.34 -0.34 0.68 0 0 Z " fill="#EDF0F1" transform="translate(239,239)"/>
<path d="M0 0 C5.34965035 -0.35664336 5.34965035 -0.35664336 7.9375 1.0625 C9.63181173 4.15212727 8.73951685 6.67217418 8 10 C7 11 7 11 5.15234375 11.09765625 C3.1015625 11.06510417 1.05078125 11.03255208 -1 11 C-0.67 7.37 -0.34 3.74 0 0 Z " fill="#6C6C6F" transform="translate(143,222)"/>
<path d="M0 0 C1.6254308 0.14095064 3.25034051 0.28792087 4.875 0.4375 C5.77992188 0.51871094 6.68484375 0.59992188 7.6171875 0.68359375 C10 1 10 1 12 2 C10.84826645 4.46800047 9.95216435 6.04783565 8 8 C8.99 8.33 9.98 8.66 11 9 C11 9.66 11 10.32 11 11 C8.36 10.67 5.72 10.34 3 10 C3 9.34 3 8.68 3 8 C2.01 8.33 1.02 8.66 0 9 C0 6.03 0 3.06 0 0 Z " fill="#9FAAA7" transform="translate(215,172)"/>
<path d="M0 0 C2.875 -0.125 2.875 -0.125 6 0 C6.66 0.66 7.32 1.32 8 2 C7.625 5.625 7.625 5.625 7 9 C4 10 1 11 -2 12 C-1.85831863 10.56208484 -1.71148957 9.1246763 -1.5625 7.6875 C-1.48128906 6.88699219 -1.40007812 6.08648437 -1.31640625 5.26171875 C-1 3 -1 3 0 0 Z " fill="#4F453F" transform="translate(254,179)"/>
<path d="M0 0 C6.875 0.875 6.875 0.875 8 2 C7.71269945 4.33944736 7.38063221 6.6739143 7 9 C2.25 10.125 2.25 10.125 0 9 C0 9.99 0 10.98 0 12 C-0.66 12 -1.32 12 -2 12 C-1.85904936 10.3745692 -1.71207913 8.74965949 -1.5625 7.125 C-1.48128906 6.22007812 -1.40007812 5.31515625 -1.31640625 4.3828125 C-1 2 -1 2 0 0 Z " fill="#564E49" transform="translate(145,160)"/>
<path d="M0 0 C0.66 0 1.32 0 2 0 C1.48041715 4.37934119 0.94324258 8.68803391 0 13 C-6.875 11.125 -6.875 11.125 -8 10 C-8.1875 7.5625 -8.1875 7.5625 -8 5 C-6 3 -6 3 -2.875 2.875 C-1.92625 2.91625 -0.9775 2.9575 0 3 C0 2.01 0 1.02 0 0 Z " fill="#5F5852" transform="translate(246,174)"/>
<path d="M0 0 C3.3 0.33 6.6 0.66 10 1 C10.625 3.3125 10.625 3.3125 11 6 C10.01 7.485 10.01 7.485 9 9 C5.37 8.67 1.74 8.34 -2 8 C-2 6 -2 6 0.5 3.375 C1.325 2.59125 2.15 1.8075 3 1 C2.01 0.67 1.02 0.34 0 0 Z " fill="#DBDFE2" transform="translate(119,267)"/>
<path d="M0 0 C4.55555556 0.55555556 4.55555556 0.55555556 6 2 C5.9140625 3.8125 5.9140625 3.8125 5.625 6 C5.53476563 6.721875 5.44453125 7.44375 5.3515625 8.1875 C5 10 5 10 4 11 C1.5 11.125 1.5 11.125 -1 11 C-2.89488952 9.10511048 -2.18019112 6.42860854 -2.23046875 3.91015625 C-2 2 -2 2 0 0 Z " fill="#666568" transform="translate(230,237)"/>
<path d="M0 0 C3.3 0.33 6.6 0.66 10 1 C10.04241723 3.33294775 10.04092937 5.66702567 10 8 C9.67 8.33 9.34 8.66 9 9 C7.14227838 8.91015699 5.28752015 8.75388139 3.4375 8.5625 C2.42558594 8.46066406 1.41367188 8.35882813 0.37109375 8.25390625 C-0.41136719 8.17011719 -1.19382813 8.08632813 -2 8 C-0.88820837 4.66462511 0.47411298 3.36292656 3 1 C2.01 0.67 1.02 0.34 0 0 Z " fill="#E4E7ED" transform="translate(199,349)"/>
<path d="M0 0 C5.75 -0.125 5.75 -0.125 8 1 C9.66194453 1.35613097 11.328451 1.69208308 13 2 C12.67 4.97 12.34 7.94 12 11 C11.34 11 10.68 11 10 11 C10.33 8.36 10.66 5.72 11 3 C10.01 3.33 9.02 3.66 8 4 C7.67 5.98 7.34 7.96 7 10 C6.34 10 5.68 10 5 10 C5 7.36 5 4.72 5 2 C4.01 2 3.02 2 2 2 C1.67 4.31 1.34 6.62 1 9 C0.34 9 -0.32 9 -1 9 C-0.67 6.03 -0.34 3.06 0 0 Z " fill="#5D5651" transform="translate(96,152)"/>
<path d="M0 0 C2.97 0.33 5.94 0.66 9 1 C9.33 2.32 9.66 3.64 10 5 C9.34 5.66 8.68 6.32 8 7 C8.33 7.99 8.66 8.98 9 10 C5.37 9.34 1.74 8.68 -2 8 C-1.67 7.01 -1.34 6.02 -1 5 C-0.34 4.67 0.32 4.34 1 4 C1.33 3.01 1.66 2.02 2 1 C1.34 0.67 0.68 0.34 0 0 Z " fill="#CFD3D6" transform="translate(169,343)"/>
<path d="M0 0 C0.94875 0.04125 1.8975 0.0825 2.875 0.125 C3.5 3.5 3.5 3.5 3.875 7.125 C1.875 9.125 1.875 9.125 -0.625 9.375 C-3.125 9.125 -3.125 9.125 -5.125 7.125 C-5.375 4.625 -5.375 4.625 -5.125 2.125 C-3.125 0.125 -3.125 0.125 0 0 Z " fill="#51443B" transform="translate(185.125,166.875)"/>
<path d="M0 0 C1.69752187 0.25245197 3.38471545 0.57645775 5.0625 0.9375 C5.98160156 1.13214844 6.90070313 1.32679688 7.84765625 1.52734375 C8.91306641 1.76130859 8.91306641 1.76130859 10 2 C8.92598892 4.91517292 8.22189824 6.77810176 6 9 C2.375 9.125 2.375 9.125 -1 9 C-1 6 -1 6 0.5 4.3125 C1.2425 3.6628125 1.2425 3.6628125 2 3 C1.01 2.34 0.02 1.68 -1 1 C-0.67 0.67 -0.34 0.34 0 0 Z " fill="#DBDFE1" transform="translate(105,354)"/>
<path d="M0 0 C3.3 0.33 6.6 0.66 10 1 C9.01 1.33 8.02 1.66 7 2 C7 2.66 7 3.32 7 4 C7.99 4.33 8.98 4.66 10 5 C9.67 6.32 9.34 7.64 9 9 C5.37 8.67 1.74 8.34 -2 8 C-1.67 7.01 -1.34 6.02 -1 5 C-0.34 4.67 0.32 4.34 1 4 C1.33 3.01 1.66 2.02 2 1 C1.34 0.67 0.68 0.34 0 0 Z " fill="#C5CBCD" transform="translate(259,359)"/>
<path d="M0 0 C3.96 0 7.92 0 12 0 C12.33 1.32 12.66 2.64 13 4 C12.34 3.67 11.68 3.34 11 3 C10.01 3.33 9.02 3.66 8 4 C8.33 4.66 8.66 5.32 9 6 C10.32 6 11.64 6 13 6 C13 6.66 13 7.32 13 8 C10.125 8.125 10.125 8.125 7 8 C6.34 7.34 5.68 6.68 5 6 C3.01178687 5.60235737 1.01055661 5.26224651 -1 5 C-0.67 3.35 -0.34 1.7 0 0 Z " fill="#E3E6E7" transform="translate(164,230)"/>
<path d="M0 0 C0.5775 0.165 1.155 0.33 1.75 0.5 C4.26664369 1.14462031 4.26664369 1.14462031 8 1 C9.2077558 4.62326739 8.54311128 5.64146369 7 9 C4.69 8.67 2.38 8.34 0 8 C0 5.36 0 2.72 0 0 Z " fill="#C0C5C8" transform="translate(263,338)"/>
<path d="M0 0 C0.66 0 1.32 0 2 0 C2 0.66 2 1.32 2 2 C3.2065625 1.7215625 3.2065625 1.7215625 4.4375 1.4375 C5.7059375 1.2209375 5.7059375 1.2209375 7 1 C8 2 8 2 8.0625 5.0625 C8.041875 6.031875 8.02125 7.00125 8 8 C4.62182575 8.84454356 2.32534757 9.10844919 -1 8 C-0.67 5.36 -0.34 2.72 0 0 Z " fill="#9EA1A5" transform="translate(237,310)"/>
<path d="M0 0 C2.31 0 4.62 0 7 0 C7.84454356 3.37817425 8.10844919 5.67465243 7 9 C4.69 8.67 2.38 8.34 0 8 C0 5.36 0 2.72 0 0 Z " fill="#BABCC2" transform="translate(82,306)"/>
<path d="M0 0 C1.1446875 0.3403125 1.1446875 0.3403125 2.3125 0.6875 C2.6425 2.3375 2.9725 3.9875 3.3125 5.6875 C1.0025 5.3575 -1.3075 5.0275 -3.6875 4.6875 C-3.3575 5.3475 -3.0275 6.0075 -2.6875 6.6875 C-1.0375 6.6875 0.6125 6.6875 2.3125 6.6875 C1.9825 7.6775 1.6525 8.6675 1.3125 9.6875 C-1.6575 9.1925 -1.6575 9.1925 -4.6875 8.6875 C-6.01591008 3.25309513 -6.01591008 3.25309513 -4.5625 0.75 C-2.6875 -0.3125 -2.6875 -0.3125 0 0 Z " fill="#68635E" transform="translate(159.6875,162.3125)"/>
<path d="M0 0 C1.98 0 3.96 0 6 0 C6 2.97 6 5.94 6 9 C3.69 9 1.38 9 -1 9 C-1.625 7.1875 -1.625 7.1875 -2 5 C-1.34 4.01 -0.68 3.02 0 2 C0 1.34 0 0.68 0 0 Z " fill="#5F5751" transform="translate(112,155)"/>
<path d="M0 0 C0.99 0 1.98 0 3 0 C3.33 0.66 3.66 1.32 4 2 C4 1.34 4 0.68 4 0 C5.9375 0.3125 5.9375 0.3125 8 1 C9.2077558 4.62326739 8.54311128 5.64146369 7 9 C4.69 8.67 2.38 8.34 0 8 C0 5.36 0 2.72 0 0 Z " fill="#A2A5A9" transform="translate(112,311)"/>
<path d="M0 0 C0.33 0.99 0.66 1.98 1 3 C2.65 3.33 4.3 3.66 6 4 C6 5.98 6 7.96 6 10 C1.25 11.125 1.25 11.125 -1 10 C-1.02689216 8.52093108 -1.04634621 7.04172517 -1.0625 5.5625 C-1.07410156 4.73878906 -1.08570313 3.91507813 -1.09765625 3.06640625 C-1 1 -1 1 0 0 Z " fill="#6A696C" transform="translate(193,231)"/>
<path d="M0 0 C2.5625 0.25 2.5625 0.25 5 1 C5.33 1.66 5.66 2.32 6 3 C7.65 2.67 9.3 2.34 11 2 C10.01 2.495 10.01 2.495 9 3 C8.59270772 5.32156597 8.25561323 7.6568787 8 10 C7.34 10 6.68 10 6 10 C6 8.35 6 6.7 6 5 C4.35 5 2.7 5 1 5 C1.66 4.34 2.32 3.68 3 3 C2.01 2.67 1.02 2.34 0 2 C0 3.32 0 4.64 0 6 C1.32 6.66 2.64 7.32 4 8 C2.125 8.625 2.125 8.625 0 9 C-2 7 -2 7 -2.25 4.5 C-2 2 -2 2 0 0 Z " fill="#6A6A6E" transform="translate(203,235)"/>
<path d="M0 0 C2.5625 0.1875 2.5625 0.1875 4.5625 2.1875 C4.5625 3.5075 4.5625 4.8275 4.5625 6.1875 C2.2525 5.8575 -0.0575 5.5275 -2.4375 5.1875 C-2.1075 5.8475 -1.7775 6.5075 -1.4375 7.1875 C0.2125 7.1875 1.8625 7.1875 3.5625 7.1875 C3.5625 7.8475 3.5625 8.5075 3.5625 9.1875 C0.6875 9.3125 0.6875 9.3125 -2.4375 9.1875 C-3.0975 8.5275 -3.7575 7.8675 -4.4375 7.1875 C-3.73338608 0.28718354 -3.73338608 0.28718354 0 0 Z " fill="#6D6864" transform="translate(232.4375,174.8125)"/>
<path d="M0 0 C1.66611905 -0.042721 3.33382885 -0.04063832 5 0 C6 1 6 1 6.09765625 3.06640625 C6.08605469 3.89011719 6.07445312 4.71382812 6.0625 5.5625 C6.05347656 6.38878906 6.04445312 7.21507812 6.03515625 8.06640625 C6.02355469 8.70449219 6.01195312 9.34257812 6 10 C3.69 9.67 1.38 9.34 -1 9 C-1.5625 7.0625 -1.5625 7.0625 -2 5 C-1 4 -1 4 1.5625 3.9375 C2.7690625 3.9684375 2.7690625 3.9684375 4 4 C4 3.34 4 2.68 4 2 C2.68 2 1.36 2 0 2 C0 1.34 0 0.68 0 0 Z " fill="#564E49" transform="translate(202,170)"/>
<path d="M0 0 C0.33 1.65 0.66 3.3 1 5 C-1.97 4.505 -1.97 4.505 -5 4 C-5 4.99 -5 5.98 -5 7 C-3.35 6.67 -1.7 6.34 0 6 C0 6.66 0 7.32 0 8 C-2.875 8.125 -2.875 8.125 -6 8 C-6.66 7.34 -7.32 6.68 -8 6 C-7.75 2.9375 -7.75 2.9375 -7 0 C-4.3333581 -1.33332095 -2.83319697 -0.67102033 0 0 Z " fill="#67605B" transform="translate(137,159)"/>
<path d="M0 0 C1.64630328 0.14042877 3.29204179 0.28749329 4.9375 0.4375 C6.31228516 0.55931641 6.31228516 0.55931641 7.71484375 0.68359375 C10 1 10 1 11 2 C11.14115161 4.67058851 11.04247107 7.32432238 11 10 C10.34 10 9.68 10 9 10 C9 7.69 9 5.38 9 3 C8.01 3 7.02 3 6 3 C6 4.65 6 6.3 6 8 C5.67 8 5.34 8 5 8 C5 6.02 5 4.04 5 2 C4.01 2 3.02 2 2 2 C2 3.98 2 5.96 2 8 C1.34 8 0.68 8 0 8 C0 5.36 0 2.72 0 0 Z " fill="#78797C" transform="translate(179,231)"/>
<path d="M0 0 C0.66 0 1.32 0 2 0 C1.67 2.31 1.34 4.62 1 7 C1.99 6.34 2.98 5.68 4 5 C4.99 5.33 5.98 5.66 7 6 C6.01 6.66 5.02 7.32 4 8 C4.33 9.98 4.66 11.96 5 14 C4.34 14 3.68 14 3 14 C2.67 12.68 2.34 11.36 2 10 C1.34 10 0.68 10 0 10 C0 10.99 0 11.98 0 13 C-0.66 13 -1.32 13 -2 13 C-1.85851011 11.3954444 -1.71164314 9.79136233 -1.5625 8.1875 C-1.48128906 7.29417969 -1.40007812 6.40085938 -1.31640625 5.48046875 C-1 3 -1 3 0 0 Z " fill="#554B43" transform="translate(122,152)"/>
<path d="M0 0 C2.64 0.33 5.28 0.66 8 1 C7.67 3.64 7.34 6.28 7 9 C6.34 9 5.68 9 5 9 C4.67 8.34 4.34 7.68 4 7 C2.02 7.99 2.02 7.99 0 9 C-0.66 8.34 -1.32 7.68 -2 7 C-0.68 7 0.64 7 2 7 C2 6.34 2 5.68 2 5 C1.34 5 0.68 5 0 5 C0 4.34 0 3.68 0 3 C0.66 3 1.32 3 2 3 C2 2.34 2 1.68 2 1 C1.34 0.67 0.68 0.34 0 0 Z " fill="#D0D5D7" transform="translate(227,376)"/>
<path d="M0 0 C3.375 -0.125 3.375 -0.125 7 0 C7.66 0.66 8.32 1.32 9 2 C7.02 4.97 7.02 4.97 5 8 C3.35 7.67 1.7 7.34 0 7 C0 4.69 0 2.38 0 0 Z " fill="#CFD3D6" transform="translate(233,333)"/>
<path d="M0 0 C1.32 0.66 2.64 1.32 4 2 C3.67 3.98 3.34 5.96 3 8 C1.0625 8.5625 1.0625 8.5625 -1 9 C-2 8 -2 8 -2.1875 5.0625 C-2 2 -2 2 0 0 Z " fill="#CBD0D2" transform="translate(115,333)"/>
<path d="M0 0 C1.65 0.33 3.3 0.66 5 1 C5.36923077 5.55384615 5.36923077 5.55384615 3.5 7.8125 C3.005 8.204375 2.51 8.59625 2 9 C2.66 9.33 3.32 9.66 4 10 C4 10.66 4 11.32 4 12 C1.69 11.67 -0.62 11.34 -3 11 C-3 10.34 -3 9.68 -3 9 C0.46153846 6 0.46153846 6 3 6 C3 5.01 3 4.02 3 3 C1.35 3 -0.3 3 -2 3 C-1.34 2.01 -0.68 1.02 0 0 Z " fill="#757679" transform="translate(221,235)"/>
<path d="M0 0 C2.31 0.33 4.62 0.66 7 1 C5.84826645 3.46800047 4.95216435 5.04783565 3 7 C3.99 7.33 4.98 7.66 6 8 C6 8.66 6 9.32 6 10 C3.36 9.67 0.72 9.34 -2 9 C-0.35 7.02 1.3 5.04 3 3 C2.01 2.67 1.02 2.34 0 2 C0 1.34 0 0.68 0 0 Z " fill="#5D5650" transform="translate(220,173)"/>
<path d="M0 0 C1.65 0.33 3.3 0.66 5 1 C4.67 3.31 4.34 5.62 4 8 C2.35 7.67 0.7 7.34 -1 7 C-0.67 4.69 -0.34 2.38 0 0 Z " fill="#CACED1" transform="translate(201,372)"/>
<path d="M0 0 C1.32 0.33 2.64 0.66 4 1 C4 2.98 4 4.96 4 7 C2.35 7.33 0.7 7.66 -1 8 C-1.625 5.6875 -1.625 5.6875 -2 3 C-1.34 2.01 -0.68 1.02 0 0 Z " fill="#D2D6D9" transform="translate(156,273)"/>
<path d="M0 0 C1.65 0.33 3.3 0.66 5 1 C5.75 2.75 5.75 2.75 6 5 C4.0625 7.25 4.0625 7.25 2 9 C2.99 9.99 3.98 10.98 5 12 C2.69 11.67 0.38 11.34 -2 11 C-0.63016497 7.83884224 -0.0109362 7.0072908 3 5 C3.33 4.01 3.66 3.02 4 2 C2.35 2.33 0.7 2.66 -1 3 C-0.67 2.01 -0.34 1.02 0 0 Z " fill="#727376" transform="translate(248,240)"/>
<path d="M0 0 C1.65 0.33 3.3 0.66 5 1 C5.125 3.375 5.125 3.375 5 6 C4.34 6.66 3.68 7.32 3 8 C1.68 8 0.36 8 -1 8 C-0.67 5.36 -0.34 2.72 0 0 Z " fill="#EDEFF0" transform="translate(145,224)"/>
<path d="M0 0 C2.0625 0.4375 2.0625 0.4375 4 1 C3.67 3.31 3.34 5.62 3 8 C2.01 8.33 1.02 8.66 0 9 C-0.66 8.67 -1.32 8.34 -2 8 C-1.125 1.125 -1.125 1.125 0 0 Z " fill="#BFC5C8" transform="translate(179,300)"/>
<path d="M0 0 C2.31 0.33 4.62 0.66 7 1 C7.125 4.375 7.125 4.375 7 8 C6.34 8.66 5.68 9.32 5 10 C5 7.36 5 4.72 5 2 C4.01 2.33 3.02 2.66 2 3 C1.67 4.98 1.34 6.96 1 9 C0.34 9 -0.32 9 -1 9 C-1.125 2.25 -1.125 2.25 0 0 Z " fill="#554B43" transform="translate(279,183)"/>
<path d="M0 0 C1.65 0 3.3 0 5 0 C5.33 0.99 5.66 1.98 6 3 C4.35 2.67 2.7 2.34 1 2 C1 2.66 1 3.32 1 4 C2.32 4.33 3.64 4.66 5 5 C5 6.32 5 7.64 5 9 C3.02 9 1.04 9 -1 9 C-1.33 8.01 -1.66 7.02 -2 6 C-1.34 6 -0.68 6 0 6 C0 6.66 0 7.32 0 8 C0.99 8 1.98 8 3 8 C2.319375 7.4225 1.63875 6.845 0.9375 6.25 C0.298125 5.5075 -0.34125 4.765 -1 4 C-0.75 1.75 -0.75 1.75 0 0 Z " fill="#4F433B" transform="translate(173,165)"/>
<path d="M0 0 C6.875 0.875 6.875 0.875 8 2 C8.23529412 7.52941176 8.23529412 7.52941176 7 10 C6.34 10 5.68 10 5 10 C5.33 7.36 5.66 4.72 6 2 C5.01 2.33 4.02 2.66 3 3 C1.77479736 6.00847418 1.77479736 6.00847418 1 9 C0.34 9 -0.32 9 -1 9 C-0.67 6.03 -0.34 3.06 0 0 Z " fill="#534941" transform="translate(191,168)"/>
<path d="M0 0 C2.0625 0.4375 2.0625 0.4375 4 1 C4.125 3.875 4.125 3.875 4 7 C3.34 7.66 2.68 8.32 2 9 C-0.125 8.625 -0.125 8.625 -2 8 C-1.125 1.125 -1.125 1.125 0 0 Z " fill="#939599" transform="translate(210,305)"/>
<path d="M0 0 C2.125 0.375 2.125 0.375 4 1 C3.34 1.66 2.68 2.32 2 3 C2.66 3.33 3.32 3.66 4 4 C3.67 5.32 3.34 6.64 3 8 C1.68 8 0.36 8 -1 8 C-2 7 -2 7 -2.1875 4.5625 C-2 2 -2 2 0 0 Z " fill="#CED3D6" transform="translate(119,289)"/>
<path d="M0 0 C1.32 0.66 2.64 1.32 4 2 C3.34 4.31 2.68 6.62 2 9 C0.68 8.67 -0.64 8.34 -2 8 C-1.125 1.125 -1.125 1.125 0 0 Z " fill="#D0D6D8" transform="translate(96,262)"/>
<path d="M0 0 C0.99 0.33 1.98 0.66 3 1 C3 3.83967231 2.59732819 6.23735711 2 9 C0.0625 8.6875 0.0625 8.6875 -2 8 C-3.03864166 4.88407501 -3.09036928 3.9737344 -2 1 C-1.34 0.67 -0.68 0.34 0 0 Z " fill="#C1C7C9" transform="translate(82,350)"/>
<path d="M0 0 C1.65 0 3.3 0 5 0 C5.6875 2.3125 5.6875 2.3125 6 5 C4.6875 6.8125 4.6875 6.8125 3 8 C2.34 8 1.68 8 1 8 C1 8.66 1 9.32 1 10 C2.32 10.33 3.64 10.66 5 11 C2.69 11 0.38 11 -2 11 C-2 10.01 -2 9.02 -2 8 C1.33333333 5 1.33333333 5 4 5 C4 3.68 4 2.36 4 1 C2.35 1.33 0.7 1.66 -1 2 C-0.67 1.34 -0.34 0.68 0 0 Z " fill="#6E6E72" transform="translate(239,239)"/>
<path d="M0 0 C1.98 0.495 1.98 0.495 4 1 C4 2.98 4 4.96 4 7 C2.02 7.99 2.02 7.99 0 9 C-1.10844919 5.67465243 -0.84454356 3.37817425 0 0 Z " fill="#BDC2C5" transform="translate(171,366)"/>
<path d="M0 0 C1.65 0.33 3.3 0.66 5 1 C4.67 2.98 4.34 4.96 4 7 C2.35 7.33 0.7 7.66 -1 8 C-0.67 7.34 -0.34 6.68 0 6 C0.66 6 1.32 6 2 6 C1.01 5.34 0.02 4.68 -1 4 C-0.67 2.68 -0.34 1.36 0 0 Z " fill="#CDD2D5" transform="translate(125,268)"/>
<path d="M0 0 C1.32 0 2.64 0 4 0 C4.125 5.75 4.125 5.75 3 8 C1.68 7.67 0.36 7.34 -1 7 C-0.67 4.69 -0.34 2.38 0 0 Z " fill="#E7E9EA" transform="translate(230,239)"/>
<path d="M0 0 C1.32 0 2.64 0 4 0 C3.67 0.66 3.34 1.32 3 2 C2.34 2 1.68 2 1 2 C1.99 2.66 2.98 3.32 4 4 C3.67 5.32 3.34 6.64 3 8 C1.35 7.67 -0.3 7.34 -2 7 C-1.125 1.125 -1.125 1.125 0 0 Z " fill="#BEC4C7" transform="translate(208,328)"/>
<path d="M0 0 C0.99 0 1.98 0 3 0 C3.33 0.99 3.66 1.98 4 3 C4.33 2.34 4.66 1.68 5 1 C5.66 1.33 6.32 1.66 7 2 C7 2.66 7 3.32 7 4 C7.33 4.99 7.66 5.98 8 7 C7.34 7.66 6.68 8.32 6 9 C6 8.34 6 7.68 6 7 C4.35 7.33 2.7 7.66 1 8 C0.67 5.36 0.34 2.72 0 0 Z " fill="#808388" transform="translate(142,316)"/>
<path d="M0 0 C1.65 0.33 3.3 0.66 5 1 C4.67 1.66 4.34 2.32 4 3 C3.01 2.67 2.02 2.34 1 2 C1 2.66 1 3.32 1 4 C2.32 4.33 3.64 4.66 5 5 C4.67 6.32 4.34 7.64 4 9 C2.35 9 0.7 9 -1 9 C-1 8.01 -1 7.02 -1 6 C0.32 6.66 1.64 7.32 3 8 C2.319375 7.4225 1.63875 6.845 0.9375 6.25 C0.298125 5.5075 -0.34125 4.765 -1 4 C-0.75 1.75 -0.75 1.75 0 0 Z " fill="#514740" transform="translate(290,185)"/>
<path d="M0 0 C1.98 0 3.96 0 6 0 C6.80967438 2.91482778 7.21845993 4.46113217 6.0625 7.3125 C5.5365625 8.1478125 5.5365625 8.1478125 5 9 C4.67 8.34 4.34 7.68 4 7 C4.33 6.34 4.66 5.68 5 5 C3.68 5 2.36 5 1 5 C1 5.99 1 6.98 1 8 C0.34 8 -0.32 8 -1 8 C-1 6.68 -1 5.36 -1 4 C0.98 4 2.96 4 5 4 C4.67 3.34 4.34 2.68 4 2 C2.68 2 1.36 2 0 2 C0 1.34 0 0.68 0 0 Z " fill="#4E433C" transform="translate(269,182)"/>
<path d="M0 0 C1.98 0.495 1.98 0.495 4 1 C4 2.98 4 4.96 4 7 C2.35 7.33 0.7 7.66 -1 8 C-1 5.16032769 -0.59732819 2.76264289 0 0 Z " fill="#C0C5C9" transform="translate(83,328)"/>
<path d="M0 0 C1.65 0 3.3 0 5 0 C5.33 1.32 5.66 2.64 6 4 C5.34 3.67 4.68 3.34 4 3 C3.01 3.33 2.02 3.66 1 4 C1.33 4.66 1.66 5.32 2 6 C3.32 6 4.64 6 6 6 C6 6.66 6 7.32 6 8 C4.02 8 2.04 8 0 8 C-1.125 2.25 -1.125 2.25 0 0 Z " fill="#6B6B6E" transform="translate(171,230)"/>
<path d="M0 0 C2.29013653 3.4352048 2.17842973 4.985331 2 9 C1.34 9 0.68 9 0 9 C0 9.66 0 10.32 0 11 C-0.99 10.67 -1.98 10.34 -3 10 C-2.34 10 -1.68 10 -1 10 C-1 9.34 -1 8.68 -1 8 C-2.32 7.67 -3.64 7.34 -5 7 C-4.360625 6.5875 -3.72125 6.175 -3.0625 5.75 C-0.79009069 3.82189513 -0.39803561 2.88575819 0 0 Z " fill="#E5E8E9" transform="translate(226,237)"/>
<path d="M0 0 C2.97 0.495 2.97 0.495 6 1 C6 1.66 6 2.32 6 3 C4.68 3 3.36 3 2 3 C1.67 5.31 1.34 7.62 1 10 C0.34 10 -0.32 10 -1 10 C-0.67 6.7 -0.34 3.4 0 0 Z " fill="#655F5A" transform="translate(165,163)"/>
<path d="M0 0 C6.875 0.875 6.875 0.875 8 2 C7.71269945 4.33944736 7.38063221 6.6739143 7 9 C6.01 8.67 5.02 8.34 4 8 C4.33 6.35 4.66 4.7 5 3 C4.01 3 3.02 3 2 3 C1.34 3.66 0.68 4.32 0 5 C0 3.35 0 1.7 0 0 Z " fill="#53473F" transform="translate(145,160)"/>
<path d="M0 0 C1.65 0.33 3.3 0.66 5 1 C5.33 3.31 5.66 5.62 6 8 C5.401875 7.690625 4.80375 7.38125 4.1875 7.0625 C1.91043228 5.89790296 1.91043228 5.89790296 -1 5 C-0.67 3.35 -0.34 1.7 0 0 Z " fill="#CBCFD2" transform="translate(173,231)"/>
<path d="M0 0 C0.99 0.33 1.98 0.66 3 1 C3.33 1.99 3.66 2.98 4 4 C4.99 4.66 5.98 5.32 7 6 C7 6.66 7 7.32 7 8 C6.38125 7.814375 5.7625 7.62875 5.125 7.4375 C2.95839822 6.76313824 2.95839822 6.76313824 1 8 C0.67 5.36 0.34 2.72 0 0 Z " fill="#BCCACA" transform="translate(286,185)"/>
<path d="M0 0 C1.32 0.66 2.64 1.32 4 2 C3.01 2.495 3.01 2.495 2 3 C2.66 3.33 3.32 3.66 4 4 C3.67 5.65 3.34 7.3 3 9 C1.68 8.67 0.36 8.34 -1 8 C-0.01 7.67 0.98 7.34 2 7 C2 6.34 2 5.68 2 5 C1.01 5 0.02 5 -1 5 C-0.67 3.35 -0.34 1.7 0 0 Z " fill="#B7BEC1" transform="translate(177,322)"/>
<path d="M0 0 C0.66 0 1.32 0 2 0 C4.43160605 3.36683915 5 4.73350364 5 9 C1.78571429 12 1.78571429 12 -1 12 C-1 11.34 -1 10.68 -1 10 C-0.01 9.34 0.98 8.68 2 8 C1.855625 7.4225 1.71125 6.845 1.5625 6.25 C1.04166667 4.16666667 0.52083333 2.08333333 0 0 Z " fill="#A2A7AB" transform="translate(291,246)"/>
<path d="M0 0 C1.32 0 2.64 0 4 0 C4 1.65 4 3.3 4 5 C2.68 5.33 1.36 5.66 0 6 C-0.38218767 4.34385343 -0.71395102 2.67542976 -1 1 C-0.67 0.67 -0.34 0.34 0 0 Z " fill="#BCD0CE" transform="translate(256,181)"/>
<path d="M0 0 C0.66 0 1.32 0 2 0 C1.85851011 1.6045556 1.71164314 3.20863767 1.5625 4.8125 C1.48128906 5.70582031 1.40007812 6.59914062 1.31640625 7.51953125 C1 10 1 10 0 13 C-0.66 13 -1.32 13 -2 13 C-1.85769192 11.58297487 -1.71099254 10.1663904 -1.5625 8.75 C-1.48128906 7.96109375 -1.40007812 7.1721875 -1.31640625 6.359375 C-1.02365007 4.17635361 -0.57935581 2.1226818 0 0 Z " fill="#5B524C" transform="translate(212,168)"/>
<path d="M0 0 C2.0625 0.4375 2.0625 0.4375 4 1 C3.835 1.5775 3.67 2.155 3.5 2.75 C2.85537969 5.26664369 2.85537969 5.26664369 3 9 C1.35 8.67 -0.3 8.34 -2 8 C-0.68 6.35 0.64 4.7 2 3 C1.01 2.34 0.02 1.68 -1 1 C-0.67 0.67 -0.34 0.34 0 0 Z " fill="#B8BEC2" transform="translate(105,354)"/>
<path d="M0 0 C2.33333333 2.33333333 4.66666667 4.66666667 7 7 C5.8553125 7.2165625 5.8553125 7.2165625 4.6875 7.4375 C1.91827092 7.9632594 1.91827092 7.9632594 -1 9 C-0.67 6.03 -0.34 3.06 0 0 Z " fill="#66605C" transform="translate(253,182)"/>
<path d="M0 0 C0.66 0 1.32 0 2 0 C1.88652381 1.97986082 1.7589065 3.95891598 1.625 5.9375 C1.52058594 7.59072266 1.52058594 7.59072266 1.4140625 9.27734375 C1.27742188 10.17582031 1.14078125 11.07429687 1 12 C0.01 12.495 0.01 12.495 -1 13 C-1.07654536 8.48382401 -1.10228696 4.40914783 0 0 Z " fill="#5A514B" transform="translate(265,177)"/>
<path d="M0 0 C1.98 0.495 1.98 0.495 4 1 C3.67 2.65 3.34 4.3 3 6 C1.68 6 0.36 6 -1 6 C-0.67 4.02 -0.34 2.04 0 0 Z " fill="#C0D4D3" transform="translate(183,168)"/>
<path d="M0 0 C1.98 0.495 1.98 0.495 4 1 C3.67 2.65 3.34 4.3 3 6 C1.68 5.67 0.36 5.34 -1 5 C-0.67 3.35 -0.34 1.7 0 0 Z " fill="#C2D5D4" transform="translate(147,162)"/>
<path d="M0 0 C0.99 0 1.98 0 3 0 C3.79953138 3.28696233 4.09658936 4.71023192 3 8 C2.01 8 1.02 8 0 8 C0 5.36 0 2.72 0 0 Z " fill="#CBD0D3" transform="translate(263,338)"/>
<path d="M0 0 C2.0625 0.4375 2.0625 0.4375 4 1 C3.835 1.5775 3.67 2.155 3.5 2.75 C2.85537969 5.26664369 2.85537969 5.26664369 3 9 C1.35 8.67 -0.3 8.34 -2 8 C-0.68 6.35 0.64 4.7 2 3 C1.01 2.34 0.02 1.68 -1 1 C-0.67 0.67 -0.34 0.34 0 0 Z " fill="#B6BCBF" transform="translate(108,332)"/>
<path d="M0 0 C0.66 0 1.32 0 2 0 C3.25664978 2.90600261 4 4.79604584 4 8 C2.35 8 0.7 8 -1 8 C-0.67 5.36 -0.34 2.72 0 0 Z " fill="#C1C7CA" transform="translate(93,240)"/>
<path d="M0 0 C1.32 0.33 2.64 0.66 4 1 C3.835 1.5775 3.67 2.155 3.5 2.75 C2.85537969 5.26664369 2.85537969 5.26664369 3 9 C1.35 8.67 -0.3 8.34 -2 8 C-2 7.34 -2 6.68 -2 6 C-1.01 5.34 -0.02 4.68 1 4 C1.33 3.01 1.66 2.02 2 1 C1.34 0.67 0.68 0.34 0 0 Z " fill="#B9C0C3" transform="translate(140,338)"/>
<path d="M0 0 C-0.66 0 -1.32 0 -2 0 C-2.33 2.31 -2.66 4.62 -3 7 C-3.66 7 -4.32 7 -5 7 C-5.33 4.69 -5.66 2.38 -6 0 C-3.50907189 -1.24546405 -2.58919267 -0.7767578 0 0 Z " fill="#8D8F92" transform="translate(214,238)"/>
<path d="M0 0 C1.32 0.33 2.64 0.66 4 1 C3.67 3.31 3.34 5.62 3 8 C2.01 8.33 1.02 8.66 0 9 C-0.66 8.34 -1.32 7.68 -2 7 C-0.68 7 0.64 7 2 7 C2 6.34 2 5.68 2 5 C1.34 5 0.68 5 0 5 C0 4.34 0 3.68 0 3 C0.66 3 1.32 3 2 3 C2 2.34 2 1.68 2 1 C1.34 0.67 0.68 0.34 0 0 Z " fill="#B4BBBF" transform="translate(227,376)"/>
<path d="M0 0 C1.32 0.33 2.64 0.66 4 1 C3.835 1.5775 3.67 2.155 3.5 2.75 C2.85537969 5.26664369 2.85537969 5.26664369 3 9 C1.35 8.67 -0.3 8.34 -2 8 C-2 6 -2 6 0 3.875 C0.66 3.25625 1.32 2.6375 2 2 C1.34 1.34 0.68 0.68 0 0 Z " fill="#B3B9BD" transform="translate(165,365)"/>
<path d="M0 0 C0.66 0 1.32 0 2 0 C2.625 2.875 2.625 2.875 3 6 C2.34 6.66 1.68 7.32 1 8 C1 7.34 1 6.68 1 6 C0.01 6 -0.98 6 -2 6 C-1.49396008 3.83125748 -1.00016187 2.00032373 0 0 Z " fill="#C4CBCD" transform="translate(273,294)"/>
<path d="M0 0 C1.32 0 2.64 0 4 0 C3.67 1.65 3.34 3.3 3 5 C1.68 5 0.36 5 -1 5 C-0.67 3.35 -0.34 1.7 0 0 Z " fill="#C5DBD9" transform="translate(241,179)"/>
<path d="M0 0 C1.32 0 2.64 0 4 0 C3.67 2.64 3.34 5.28 3 8 C1.35 8 -0.3 8 -2 8 C-0.88820837 4.66462511 0.47411298 3.36292656 3 1 C2.01 0.67 1.02 0.34 0 0 Z " fill="#84868B" transform="translate(199,349)"/>
<path d="M0 0 C1.32 0 2.64 0 4 0 C4 2.31 4 4.62 4 7 C2.35 7.33 0.7 7.66 -1 8 C-0.67 7.34 -0.34 6.68 0 6 C0.66 6.33 1.32 6.66 2 7 C1.34 5.68 0.68 4.36 0 3 C0.99 3 1.98 3 3 3 C3 2.34 3 1.68 3 1 C2.01 0.67 1.02 0.34 0 0 Z " fill="#838689" transform="translate(205,350)"/>
<path d="M0 0 C0.99 0.495 0.99 0.495 2 1 C3.67654729 0.72057545 5.34608154 0.39171753 7 0 C7.33 0.99 7.66 1.98 8 3 C6.02 3 4.04 3 2 3 C1.67 3.99 1.34 4.98 1 6 C0.67 4.02 0.34 2.04 0 0 Z " fill="#BAC9CA" transform="translate(266,183)"/>
<path d="M0 0 C2.125 0.375 2.125 0.375 4 1 C3.01 1 2.02 1 1 1 C0.83318891 3.91652174 0.83318891 3.91652174 1 7 C1.66 7.66 2.32 8.32 3 9 C-0.875 8.125 -0.875 8.125 -2 7 C-2.1875 4.5625 -2.1875 4.5625 -2 2 C-1.34 1.34 -0.68 0.68 0 0 Z " fill="#4F423A" transform="translate(240,177)"/>
<path d="M0 0 C1.98 0.495 1.98 0.495 4 1 C4.33 2.65 4.66 4.3 5 6 C3.02 5.34 1.04 4.68 -1 4 C-0.67 2.68 -0.34 1.36 0 0 Z " fill="#CCCFD3" transform="translate(203,237)"/>
<path d="M0 0 C0.33 0 0.66 0 1 0 C1.125 2.375 1.125 2.375 1 5 C-1 7 -1 7 -3.625 7.125 C-4.40875 7.08375 -5.1925 7.0425 -6 7 C-5 5 -5 5 -2 4 C-0.79117904 1.99983534 -0.79117904 1.99983534 0 0 Z " fill="#59534E" transform="translate(188,169)"/>
<path d="M0 0 C1.32 0 2.64 0 4 0 C3.67 1.98 3.34 3.96 3 6 C1.68 6 0.36 6 -1 6 C-0.67 4.02 -0.34 2.04 0 0 Z " fill="#D5DADC" transform="translate(140,362)"/>
<path d="M0 0 C1.98 0.495 1.98 0.495 4 1 C3.67 2.65 3.34 4.3 3 6 C2.01 6 1.02 6 0 6 C-1 3 -1 3 0 0 Z " fill="#DDE1E3" transform="translate(178,301)"/>
<path d="M0 0 C1.32 0 2.64 0 4 0 C3.67 2.64 3.34 5.28 3 8 C1.68 7.67 0.36 7.34 -1 7 C-1 5 -1 5 1 2.875 C1.66 2.25625 2.32 1.6375 3 1 C2.01 0.67 1.02 0.34 0 0 Z " fill="#C3CACC" transform="translate(89,262)"/>
<path d="M0 0 C1.32 0.33 2.64 0.66 4 1 C4 2.32 4 3.64 4 5 C2.68 5 1.36 5 0 5 C0 3.35 0 1.7 0 0 Z " fill="#E3E6E7" transform="translate(194,235)"/>
<path d="M0 0 C0.33 1.32 0.66 2.64 1 4 C-0.98 4.99 -0.98 4.99 -3 6 C-3.66 4.68 -4.32 3.36 -5 2 C-3.35 2 -1.7 2 0 2 C0 1.34 0 0.68 0 0 Z " fill="#888B8A" transform="translate(206,172)"/>
<path d="M0 0 C1.2065625 0.0309375 1.2065625 0.0309375 2.4375 0.0625 C2.7675 1.0525 3.0975 2.0425 3.4375 3.0625 C1.7875 2.7325 0.1375 2.4025 -1.5625 2.0625 C-1.8925 3.0525 -2.2225 4.0425 -2.5625 5.0625 C-3.125 3.125 -3.125 3.125 -3.5625 1.0625 C-2.5625 0.0625 -2.5625 0.0625 0 0 Z " fill="#5D5653" transform="translate(175.5625,164.9375)"/>
<path d="M0 0 C1.98 0 3.96 0 6 0 C5.67 0.99 5.34 1.98 5 3 C2.9375 3.6875 2.9375 3.6875 1 4 C0.67 2.68 0.34 1.36 0 0 Z " fill="#898A87" transform="translate(110,160)"/>
<path d="M0 0 C1.32 1.65 2.64 3.3 4 5 C2.35 5.33 0.7 5.66 -1 6 C-1 5.34 -1 4.68 -1 4 C-1.66 3.67 -2.32 3.34 -3 3 C-2.01 2.01 -1.02 1.02 0 0 Z " fill="#F4F7F8" transform="translate(169,368)"/>
<path d="M0 0 C0 0.99 0 1.98 0 3 C0.66 3 1.32 3 2 3 C1.67 4.65 1.34 6.3 1 8 C0.67 7.34 0.34 6.68 0 6 C-0.99 6 -1.98 6 -3 6 C-1.125 1.125 -1.125 1.125 0 0 Z " fill="#B0B6BA" transform="translate(236,355)"/>
<path d="M0 0 C0.66 0 1.32 0 2 0 C2 2.64 2 5.28 2 8 C1.01 7.67 0.02 7.34 -1 7 C-0.67 4.69 -0.34 2.38 0 0 Z " fill="#68625E" transform="translate(122,152)"/>
<path d="M0 0 C2.475 0.495 2.475 0.495 5 1 C4.67 2.32 4.34 3.64 4 5 C3.01 5 2.02 5 1 5 C1.66 4.01 2.32 3.02 3 2 C2.01 2 1.02 2 0 2 C0 1.34 0 0.68 0 0 Z " fill="#BBC2C4" transform="translate(74,349)"/>
<path d="M0 0 C2.475 0.495 2.475 0.495 5 1 C4.67 2.32 4.34 3.64 4 5 C3.01 5 2.02 5 1 5 C1.66 4.01 2.32 3.02 3 2 C2.01 2 1.02 2 0 2 C0 1.34 0 0.68 0 0 Z " fill="#B9BFC2" transform="translate(174,344)"/>
<path d="M0 0 C0.99 0 1.98 0 3 0 C2.67 2.97 2.34 5.94 2 9 C1.34 9 0.68 9 0 9 C0 6.03 0 3.06 0 0 Z " fill="#919497" transform="translate(267,315)"/>
<path d="M0 0 C0.98120464 3.05263664 0.98120464 4.94736336 0 8 C-1.32 7.67 -2.64 7.34 -4 7 C-3.67 6.01 -3.34 5.02 -3 4 C-2.34 3.67 -1.68 3.34 -1 3 C-0.67 2.01 -0.34 1.02 0 0 Z " fill="#7F8185" transform="translate(89,307)"/>
<path d="M0 0 C1.65 0.33 3.3 0.66 5 1 C3.68 1.33 2.36 1.66 1 2 C1 2.66 1 3.32 1 4 C1.66 4.33 2.32 4.66 3 5 C1.68 5.99 0.36 6.98 -1 8 C-0.67 5.36 -0.34 2.72 0 0 Z " fill="#BCC3C6" transform="translate(216,262)"/>
<path d="M0 0 C1.32 0.33 2.64 0.66 4 1 C4.33 2.65 4.66 4.3 5 6 C3.35 5.67 1.7 5.34 0 5 C0.99 4.67 1.98 4.34 3 4 C2.01 2.68 1.02 1.36 0 0 Z " fill="#564C45" transform="translate(232,175)"/>
</svg>
